<?xml version="1.0" encoding="utf-8"?>
<svg viewBox="0 0 508 418" fill="none" xmlns="http://www.w3.org/2000/svg">
  <defs>
    <clipPath id="clip0_302_248">
      <rect width="508" height="418" fill="white"/>
    </clipPath>
  </defs>
  <g clip-path="url(#clip0_302_248)">
    <path d="M413.427 42.0109C416.673 28.7659 413.586 13.319 403.1 4.60684C402.895 19.4356 397.454 33.7139 387.74 44.9155C383.978 49.2219 379.345 53.6197 379.163 59.3363C379.049 62.8932 380.785 66.3097 383.176 68.944C385.568 71.5784 388.585 73.5498 391.566 75.4912L392.004 76.2641C401.6 66.5794 410.181 55.256 413.427 42.0109Z" fill="#F0F0F0"/>
    <path d="M402.889 4.80036C406.911 15.3467 407.509 26.8928 404.599 37.7986C404.014 40.1575 403.061 42.4094 401.775 44.4714C400.457 46.4396 398.637 48.0189 396.503 49.0452C394.533 50.0422 392.402 50.8337 390.708 52.2925C389.852 53.0521 389.167 53.9842 388.696 55.0275C388.225 56.0709 387.98 57.202 387.977 58.3468C387.896 61.1988 388.843 63.9102 389.861 66.5295C390.992 69.4377 392.213 72.4406 391.952 75.6247C391.92 76.0105 392.52 76.0371 392.552 75.6519C393.007 70.1121 389.246 65.4327 388.65 60.0594C388.371 57.5521 388.846 54.9458 390.699 53.1177C392.32 51.5192 394.516 50.7011 396.52 49.7089C398.616 48.7382 400.443 47.2687 401.841 45.4288C403.228 43.4389 404.266 41.2275 404.911 38.8892C406.447 33.6481 407.15 28.1979 406.993 22.7384C406.85 16.5065 405.642 10.3451 403.421 4.52078C403.284 4.16034 402.753 4.44227 402.889 4.80035V4.80036Z" fill="white"/>
    <path d="M405.742 34.3421C407.638 34.5823 409.556 34.1407 411.156 33.0961C412.756 32.0515 413.932 30.472 414.476 28.6397C414.584 28.2686 414.013 28.0822 413.904 28.4539C413.401 30.1611 412.305 31.6323 410.814 32.6019C409.322 33.5716 407.533 33.9758 405.77 33.7417C405.386 33.6913 405.361 34.292 405.742 34.3421Z" fill="white"/>
    <path d="M397.569 48.6714C395.149 45.605 393.973 41.7388 394.276 37.8436C394.306 37.4577 393.706 37.431 393.676 37.8164C393.368 41.8704 394.6 45.8913 397.125 49.0767C397.366 49.3801 397.809 48.9732 397.569 48.6714Z" fill="white"/>
    <path d="M406.126 16.8399C405.374 16.8999 404.618 16.7718 403.927 16.4674C403.236 16.1629 402.631 15.6915 402.167 15.0954C401.931 14.7891 401.489 15.1964 401.724 15.5008C402.239 16.1569 402.908 16.6767 403.67 17.0148C404.433 17.3529 405.267 17.499 406.099 17.4404C406.178 17.4414 406.254 17.4123 406.312 17.3591C406.371 17.3059 406.407 17.2324 406.413 17.1537C406.416 17.0742 406.388 16.9966 406.334 16.9379C406.28 16.8791 406.206 16.8439 406.126 16.8399Z" fill="white"/>
    <path d="M357.752 13.1813C357.894 13.3768 358.037 13.5723 358.178 13.7727C360.08 16.411 361.765 19.1995 363.216 22.1108C363.332 22.3341 363.446 22.5621 363.555 22.7883C366.976 29.8395 369.058 37.4649 369.697 45.2769C369.948 48.3856 369.963 51.509 369.741 54.62C369.433 58.9164 368.758 63.5503 369.855 67.5787C369.965 68.0003 370.101 68.4147 370.262 68.8195L391.027 76.7386C391.084 76.7329 391.138 76.732 391.195 76.7264L392.009 77.0805C392.032 76.9208 392.052 76.7548 392.075 76.5951C392.088 76.5026 392.097 76.4082 392.111 76.3157C392.118 76.2534 392.126 76.1911 392.136 76.1353C392.139 76.1146 392.141 76.0938 392.142 76.0778C392.152 76.0221 392.156 75.9692 392.164 75.9182C392.279 74.9902 392.388 74.0598 392.49 73.127C392.492 73.1223 392.492 73.1223 392.489 73.1158C393.335 66.0155 393.337 58.8399 392.494 51.7392C392.466 51.5277 392.44 51.3115 392.402 51.0963C391.966 47.929 391.271 44.8027 390.326 41.7487C389.803 40.078 389.195 38.4349 388.506 36.8257C386.717 32.6712 384.287 28.8241 381.303 25.4253C375.354 18.6508 367.305 13.8552 358.43 13.223C358.203 13.207 357.981 13.1926 357.752 13.1813Z" fill="#F0F0F0"/>
    <path d="M357.698 13.4628C367.256 19.461 374.681 28.3196 378.92 38.7805C379.873 41.0163 380.467 43.3883 380.681 45.8092C380.814 48.1743 380.311 50.5317 379.225 52.6365C378.252 54.6194 377.026 56.5349 376.552 58.7199C376.326 59.842 376.339 60.9993 376.591 62.1159C376.843 63.2325 377.328 64.2831 378.015 65.199C379.666 67.5255 382.054 69.1197 384.443 70.5975C387.096 72.2384 389.878 73.9007 391.585 76.6005C391.792 76.9276 392.287 76.5873 392.081 76.2607C389.11 71.5635 383.292 70.0925 379.582 66.1615C377.851 64.3273 376.662 61.96 377.041 59.3843C377.373 57.1319 378.635 55.1556 379.637 53.1564C380.727 51.1186 381.301 48.8449 381.31 46.5339C381.22 44.1098 380.718 41.7189 379.826 39.4633C377.898 34.3533 375.18 29.5783 371.769 25.3133C367.905 20.424 363.232 16.2322 357.954 12.9192C357.628 12.7143 357.373 13.2593 357.698 13.4629V13.4628Z" fill="white"/>
    <path d="M377.754 35.3318C379.411 34.3819 380.677 32.8735 381.326 31.0759C381.975 29.2782 381.964 27.3084 381.295 25.5182C381.158 25.1564 380.59 25.3518 380.727 25.714C381.353 27.3799 381.363 29.2148 380.755 30.8876C380.148 32.5603 378.963 33.9607 377.414 34.836C377.078 35.0266 377.419 35.5213 377.754 35.3318Z" fill="white"/>
    <path d="M379.851 51.6961C376.073 50.7055 372.808 48.3268 370.705 45.0344C370.497 44.708 370.002 45.0482 370.21 45.3742C372.404 48.7962 375.807 51.2647 379.74 52.287C380.115 52.3841 380.224 51.7928 379.851 51.6961Z" fill="white"/>
    <path d="M367.528 21.126C366.963 21.6272 366.282 21.9802 365.547 22.1533C364.812 22.3264 364.046 22.3142 363.317 22.1177C362.943 22.0158 362.836 22.6073 363.207 22.7085C364.013 22.9219 364.86 22.9343 365.672 22.7449C366.484 22.5555 367.238 22.1698 367.867 21.6218C367.931 21.5751 367.974 21.5059 367.989 21.4283C368.003 21.3507 367.988 21.2705 367.945 21.204C367.9 21.1386 367.831 21.0937 367.752 21.0791C367.674 21.0645 367.593 21.0813 367.528 21.126V21.126Z" fill="white"/>
    <path d="M330.295 312.369C260.676 312.369 204.037 255.703 204.037 186.05C204.037 116.397 260.676 59.7306 330.295 59.7306C337.655 59.7297 345.002 60.3666 352.252 61.6341C352.343 61.6498 352.429 61.6831 352.506 61.7322C352.584 61.7812 352.651 61.8451 352.704 61.9202C352.757 61.9953 352.794 62.08 352.814 62.1696C352.834 62.2592 352.836 62.3518 352.821 62.4423C352.805 62.5327 352.771 62.6191 352.722 62.6965C352.673 62.7739 352.609 62.8409 352.533 62.8935C352.458 62.9461 352.373 62.9834 352.284 63.0032C352.194 63.023 352.102 63.0249 352.011 63.0088C344.84 61.7554 337.575 61.1256 330.295 61.1264C261.445 61.1264 205.432 117.167 205.432 186.05C205.432 254.933 261.445 310.973 330.295 310.973C399.145 310.973 455.158 254.933 455.158 186.05C455.189 154.915 443.569 124.897 422.586 101.905C422.462 101.768 422.398 101.588 422.407 101.404C422.416 101.22 422.498 101.046 422.634 100.922C422.77 100.798 422.95 100.733 423.134 100.741C423.318 100.749 423.492 100.829 423.617 100.965C444.835 124.214 456.585 154.567 456.553 186.05C456.553 255.703 399.914 312.369 330.295 312.369Z" fill="#E4E4E4"/>
    <path d="M385.966 103.054C399.762 103.054 410.946 91.8642 410.946 78.0613C410.946 64.2584 399.762 53.0689 385.966 53.0689C372.169 53.0689 360.985 64.2584 360.985 78.0613C360.985 91.8642 372.169 103.054 385.966 103.054Z" fill="#6C63FF"/>
    <path d="M382.558 91.0686C382.126 91.0687 381.701 90.9681 381.315 90.7751C380.929 90.582 380.594 90.3017 380.335 89.9564L373.52 80.8652C373.301 80.5731 373.142 80.2408 373.051 79.8871C372.961 79.5334 372.941 79.1654 372.992 78.804C373.044 78.4426 373.166 78.0949 373.352 77.7808C373.538 77.4666 373.784 77.1922 374.076 76.9732C374.368 76.7542 374.7 76.5948 375.053 76.5042C375.407 76.4136 375.775 76.3936 376.136 76.4452C376.497 76.4968 376.845 76.6192 377.159 76.8052C377.473 76.9912 377.747 77.2372 377.966 77.5293L382.424 83.4766L393.876 66.2914C394.286 65.6805 394.921 65.257 395.642 65.1138C396.364 64.9706 397.113 65.1194 397.725 65.5276C398.336 65.9357 398.762 66.57 398.907 67.2913C399.052 68.0126 398.906 68.7622 398.5 69.3757L384.87 89.8306C384.623 90.2005 384.292 90.5059 383.903 90.7212C383.514 90.9364 383.079 91.0553 382.635 91.0677C382.609 91.0682 382.583 91.0686 382.558 91.0686Z" fill="white"/>
    <path d="M327.047 166.447L288.525 59.2283L289.502 58.8769L282.417 39.1566L281.44 39.5083L269.612 6.5889C269.171 5.35939 268.491 4.22897 267.613 3.26218C266.734 2.29538 265.674 1.51115 264.493 0.954259C263.312 0.397365 262.032 0.0787121 260.728 0.016503C259.424 -0.0457061 258.12 0.149744 256.891 0.59169L187.251 25.6359C186.023 26.0778 184.893 26.7576 183.926 27.6363C182.96 28.5151 182.176 29.5757 181.619 30.7576C181.063 31.9395 180.744 33.2195 180.682 34.5246C180.62 35.8296 180.815 37.1341 181.257 38.3636L189.504 61.317L187.96 61.9117L193.224 75.5884L194.46 75.1123L195.553 78.1545L194.238 78.6612L199.503 92.338L200.51 91.95L238.691 198.221C239.131 199.452 239.809 200.585 240.687 201.553C241.565 202.521 242.625 203.306 243.807 203.863C244.989 204.42 246.27 204.739 247.575 204.8C248.88 204.861 250.184 204.663 251.413 204.219L321.052 179.175C323.532 178.28 325.556 176.437 326.68 174.051C327.804 171.665 327.936 168.93 327.047 166.447Z" fill="#3F3D56"/>
    <path d="M247.751 200.685C246.77 200.683 245.814 200.379 245.012 199.814C244.21 199.249 243.602 198.451 243.269 197.528L185.229 35.9827C184.802 34.7929 184.864 33.4819 185.403 32.3382C185.941 31.1945 186.912 30.3117 188.101 29.884L202.918 24.5553L202.896 25.074C202.858 25.9743 203.042 26.8702 203.432 27.6827C203.821 28.4952 204.405 29.1994 205.13 29.7332C205.856 30.267 206.702 30.6141 207.593 30.7438C208.484 30.8736 209.394 30.782 210.241 30.4772L243.125 18.6515C243.919 18.2877 244.616 17.742 245.159 17.0587C245.703 16.3753 246.079 15.5735 246.255 14.718C246.43 13.8768 246.404 13.0062 246.178 12.1772C245.953 11.3482 245.534 10.5843 244.957 9.94791L244.61 9.5618L259.915 4.05736C261.105 3.63144 262.414 3.69481 263.557 4.23358C264.7 4.77235 265.583 5.74254 266.012 6.9314L321.387 161.059C322.517 164.216 322.349 167.693 320.921 170.727C319.492 173.761 316.918 176.104 313.765 177.242L249.365 200.402C248.848 200.589 248.301 200.685 247.751 200.685Z" fill="white"/>
    <path d="M242.077 86.1045C252.479 86.1045 260.911 77.6681 260.911 67.2613C260.911 56.8545 252.479 48.4181 242.077 48.4181C231.675 48.4181 223.243 56.8545 223.243 67.2613C223.243 77.6681 231.675 86.1045 242.077 86.1045Z" fill="#6C63FF"/>
    <path d="M288.748 94.6638L223.524 118.12C223.32 118.194 223.104 118.227 222.888 118.217C222.671 118.207 222.459 118.154 222.263 118.062C222.067 117.97 221.891 117.84 221.745 117.68C221.599 117.519 221.486 117.332 221.413 117.128C221.34 116.924 221.307 116.707 221.318 116.491C221.328 116.274 221.381 116.062 221.474 115.866C221.566 115.67 221.697 115.494 221.857 115.349C222.018 115.203 222.206 115.091 222.41 115.018L287.633 91.5616C288.044 91.4151 288.496 91.4375 288.89 91.624C289.285 91.8106 289.589 92.1459 289.737 92.5566C289.884 92.9673 289.863 93.4198 289.678 93.8148C289.492 94.2098 289.158 94.5151 288.748 94.6638Z" fill="#E6E6E6"/>
    <path d="M269.378 109.536L247.925 117.252C247.721 117.325 247.505 117.358 247.288 117.348C247.072 117.338 246.86 117.285 246.663 117.193C246.467 117.101 246.291 116.971 246.146 116.811C246 116.65 245.887 116.463 245.814 116.259C245.741 116.055 245.708 115.839 245.719 115.622C245.729 115.406 245.782 115.193 245.875 114.997C245.967 114.801 246.097 114.626 246.258 114.48C246.418 114.335 246.606 114.222 246.81 114.149L268.264 106.434C268.675 106.286 269.128 106.308 269.523 106.494C269.919 106.68 270.224 107.016 270.372 107.427C270.519 107.839 270.498 108.292 270.311 108.688C270.125 109.083 269.79 109.388 269.378 109.536Z" fill="#E6E6E6"/>
    <path d="M274.481 123.739L253.027 131.454C252.824 131.528 252.608 131.56 252.392 131.55C252.176 131.539 251.964 131.486 251.768 131.394C251.572 131.302 251.397 131.172 251.251 131.012C251.105 130.852 250.993 130.664 250.92 130.461C250.847 130.257 250.814 130.041 250.824 129.825C250.835 129.608 250.888 129.396 250.98 129.201C251.072 129.005 251.202 128.829 251.362 128.683C251.522 128.538 251.709 128.425 251.913 128.352L273.367 120.637C273.778 120.489 274.231 120.51 274.626 120.697C275.021 120.883 275.327 121.219 275.474 121.63C275.622 122.042 275.601 122.495 275.414 122.89C275.228 123.286 274.892 123.591 274.481 123.739V123.739Z" fill="#E6E6E6"/>
    <path d="M277.095 131.013L255.641 138.729C255.437 138.803 255.221 138.836 255.004 138.826C254.788 138.816 254.576 138.763 254.379 138.671C254.183 138.579 254.007 138.449 253.861 138.289C253.715 138.128 253.603 137.941 253.529 137.737C253.456 137.533 253.424 137.316 253.434 137.1C253.445 136.883 253.498 136.671 253.59 136.475C253.683 136.279 253.813 136.103 253.974 135.957C254.135 135.812 254.322 135.699 254.526 135.627L275.98 127.911C276.184 127.837 276.4 127.805 276.617 127.815C276.833 127.824 277.046 127.877 277.242 127.969C277.438 128.061 277.614 128.191 277.76 128.352C277.905 128.512 278.018 128.699 278.091 128.903C278.165 129.107 278.197 129.324 278.187 129.54C278.176 129.757 278.123 129.969 278.031 130.165C277.938 130.361 277.808 130.537 277.647 130.683C277.487 130.828 277.299 130.941 277.095 131.013L277.095 131.013Z" fill="#E6E6E6"/>
    <path d="M283.926 112.211L238.408 128.58C238.204 128.654 237.988 128.687 237.772 128.677C237.555 128.667 237.343 128.614 237.147 128.522C236.951 128.43 236.775 128.3 236.629 128.14C236.483 127.98 236.37 127.792 236.297 127.588C236.224 127.384 236.191 127.168 236.202 126.951C236.212 126.735 236.265 126.522 236.358 126.326C236.45 126.13 236.581 125.954 236.741 125.809C236.902 125.663 237.09 125.551 237.294 125.478L282.811 109.109C283.015 109.035 283.231 109.002 283.448 109.012C283.664 109.022 283.877 109.074 284.073 109.167C284.269 109.259 284.445 109.389 284.591 109.549C284.737 109.709 284.849 109.897 284.923 110.101C284.996 110.305 285.028 110.521 285.018 110.738C285.007 110.954 284.954 111.167 284.862 111.363C284.769 111.559 284.639 111.734 284.478 111.88C284.318 112.025 284.13 112.138 283.926 112.211Z" fill="#E6E6E6"/>
    <path d="M274.758 148.673L266.968 151.474C266.269 151.725 265.499 151.688 264.827 151.371C264.155 151.054 263.637 150.483 263.386 149.784C263.135 149.085 263.171 148.314 263.487 147.642C263.804 146.97 264.374 146.451 265.073 146.199L272.862 143.397C273.561 143.147 274.331 143.184 275.003 143.501C275.675 143.817 276.193 144.388 276.445 145.088C276.696 145.787 276.659 146.557 276.343 147.229C276.027 147.902 275.456 148.421 274.758 148.673Z" fill="#6C63FF"/>
    <path d="M213.372 25.0777C213.97 25.0777 214.455 24.5925 214.455 23.9939C214.455 23.3953 213.97 22.9101 213.372 22.9101C212.773 22.9101 212.288 23.3953 212.288 23.9939C212.288 24.5925 212.773 25.0777 213.372 25.0777Z" fill="white"/>
    <path d="M88.7877 84.9506C100.929 70.6518 120.629 61.6405 138.791 66.3124C122.433 78.4964 110.91 96.0764 106.261 115.942C104.496 123.61 103.33 132.323 97.1075 137.135C93.2357 140.129 88.0295 140.948 83.1662 140.404C78.3026 139.861 73.6736 138.085 69.1069 136.325L67.8927 136.46C70.9469 117.949 76.6463 99.2494 88.7877 84.9506Z" fill="#F0F0F0"/>
    <path d="M138.746 66.7034C123.752 70.7206 110.404 79.3623 100.599 91.401C98.4422 93.9552 96.7012 96.8336 95.4403 99.9301C94.3093 102.986 94.0171 106.29 94.5938 109.497C95.0715 112.498 95.9075 115.513 95.6476 118.579C95.4913 120.146 95.0057 121.662 94.2225 123.028C93.4394 124.394 92.3765 125.579 91.1034 126.506C87.9915 128.896 84.2065 130.026 80.4667 131.001C76.3145 132.085 71.9844 133.144 68.6472 136.003C68.2429 136.349 67.7293 135.701 68.1331 135.355C73.9392 130.382 82.1851 130.804 88.6532 127.137C91.6714 125.426 94.1924 122.794 94.7355 119.254C95.2104 116.158 94.3509 113.048 93.841 110.014C93.2325 106.893 93.3971 103.671 94.3203 100.628C95.4196 97.4775 97.0468 94.5369 99.1322 91.9323C103.734 85.9935 109.24 80.8156 115.449 76.5881C122.509 71.724 130.348 68.1041 138.628 65.8848C139.141 65.7476 139.255 66.5672 138.746 66.7034H138.746Z" fill="white"/>
    <path d="M103.528 87.3386C101.733 85.4185 100.678 82.9224 100.552 80.296C100.426 77.6696 101.238 75.084 102.841 73.0008C103.167 72.5805 103.836 73.0675 103.509 73.4884C102.012 75.4254 101.257 77.834 101.379 80.2795C101.501 82.725 102.493 85.0462 104.175 86.8243C104.541 87.2111 103.891 87.7233 103.528 87.3386H103.528Z" fill="white"/>
    <path d="M94.1513 108.007C99.519 108.234 104.775 106.428 108.871 102.95C109.277 102.606 109.79 103.253 109.385 103.598C105.116 107.209 99.6425 109.077 94.0572 108.829C93.5249 108.805 93.6218 107.983 94.1513 108.007Z" fill="white"/>
    <path d="M122.721 72.7998C123.261 73.6876 124.013 74.4273 124.909 74.9525C125.805 75.4776 126.818 75.7718 127.856 75.8087C128.389 75.8259 128.291 76.6474 127.762 76.6302C126.615 76.5842 125.497 76.2579 124.506 75.6799C123.514 75.1018 122.679 74.2896 122.074 73.3142C122.009 73.2271 121.98 73.1185 121.992 73.0106C122.004 72.9027 122.057 72.8036 122.14 72.7333C122.226 72.6656 122.335 72.6347 122.444 72.6471C122.553 72.6596 122.652 72.7145 122.721 72.7998Z" fill="white"/>
    <path d="M165.798 123.804C165.465 123.803 165.133 123.801 164.796 123.806C160.322 123.811 155.857 124.18 151.443 124.909C151.101 124.96 150.755 125.016 150.415 125.077C139.8 126.946 129.624 130.771 120.405 136.357C116.738 138.583 113.246 141.085 109.959 143.841C105.419 147.648 100.8 152.137 95.4271 154.161C94.8689 154.378 94.2978 154.561 93.717 154.708L68.1512 137.932C68.1122 137.865 68.0691 137.803 68.0299 137.735L66.9785 137.112C67.1381 136.958 67.307 136.802 67.4666 136.648C67.5588 136.558 67.6567 136.472 67.7489 136.383C67.8122 136.324 67.8758 136.265 67.9296 136.209C67.9505 136.189 67.9718 136.17 67.989 136.156C68.0427 136.1 68.0987 136.053 68.1486 136.002C69.09 135.126 70.0392 134.255 70.9962 133.389C71 133.383 71 133.383 71.0096 133.381C78.3182 126.801 86.2401 120.774 94.8246 116.141C95.0829 116.002 95.3448 115.856 95.6148 115.725C99.4958 113.658 103.539 111.912 107.705 110.505C109.988 109.741 112.308 109.094 114.657 108.565C120.728 107.211 126.975 106.82 133.168 107.408C145.512 108.581 157.345 113.692 165.205 123.081C165.405 123.321 165.601 123.558 165.798 123.804Z" fill="#F0F0F0"/>
    <path d="M165.528 124.091C151.139 118.267 135.281 117.127 120.207 120.833C116.948 121.573 113.826 122.822 110.956 124.535C108.214 126.294 105.992 128.756 104.523 131.664C103.098 134.348 101.951 137.259 99.899 139.55C98.8312 140.707 97.531 141.625 96.0836 142.244C94.6362 142.863 93.0743 143.169 91.5004 143.142C87.577 143.176 83.8753 141.798 80.3022 140.324C76.3349 138.688 72.24 136.926 67.8552 137.198C67.3239 137.231 67.3038 136.404 67.8342 136.371C75.4631 135.898 81.7932 141.201 89.1643 142.17C92.6037 142.622 96.2001 142.039 98.7643 139.54C101.007 137.354 102.192 134.353 103.611 131.623C105.003 128.765 107.073 126.291 109.641 124.418C112.415 122.564 115.484 121.197 118.716 120.373C125.964 118.403 133.477 117.586 140.978 117.95C149.542 118.319 157.98 120.151 165.927 123.367C166.419 123.566 166.016 124.289 165.528 124.091L165.528 124.091Z" fill="white"/>
    <path d="M124.991 119.353C124.713 116.739 125.373 114.11 126.853 111.937C128.333 109.765 130.537 108.189 133.071 107.492C133.584 107.352 133.824 108.144 133.31 108.283C130.949 108.928 128.897 110.396 127.523 112.422C126.149 114.448 125.544 116.899 125.817 119.332C125.876 119.861 125.049 119.879 124.991 119.353V119.353Z" fill="white"/>
    <path d="M105.066 130.208C109.215 133.622 114.498 135.346 119.862 135.037C120.393 135.006 120.414 135.832 119.883 135.863C114.301 136.175 108.806 134.37 104.496 130.807C104.086 130.467 104.658 129.87 105.066 130.208H105.066Z" fill="white"/>
    <path d="M149.064 119.306C148.961 120.34 149.116 121.383 149.516 122.343C149.916 123.302 150.547 124.147 151.354 124.801C151.768 125.136 151.196 125.733 150.784 125.401C149.896 124.673 149.2 123.739 148.756 122.681C148.312 121.622 148.134 120.47 148.238 119.327C148.239 119.218 148.281 119.114 148.355 119.035C148.43 118.956 148.532 118.909 148.641 118.903C148.75 118.901 148.856 118.942 148.935 119.017C149.014 119.093 149.061 119.196 149.064 119.306Z" fill="white"/>
    <path d="M453.17 359.775C466.409 363.023 481.848 359.935 490.556 349.443C475.734 349.238 461.463 343.795 450.267 334.076C445.963 330.312 441.567 325.677 435.853 325.495C432.298 325.381 428.883 327.117 426.25 329.51C423.617 331.903 421.646 334.921 419.706 337.904L418.933 338.342C428.613 347.943 439.931 356.528 453.17 359.775Z" fill="#F0F0F0"/>
    <path d="M490.363 349.233C479.821 353.256 468.281 353.855 457.38 350.943C455.023 350.358 452.772 349.404 450.711 348.118C448.744 346.8 447.165 344.979 446.139 342.844C445.143 340.872 444.352 338.741 442.893 337.046C442.134 336.19 441.203 335.503 440.16 335.032C439.117 334.562 437.986 334.317 436.842 334.314C433.991 334.232 431.281 335.179 428.663 336.199C425.756 337.33 422.755 338.551 419.573 338.29C419.187 338.258 419.16 338.859 419.545 338.89C425.082 339.345 429.76 335.583 435.13 334.986C437.636 334.708 440.241 335.183 442.069 337.037C443.666 338.658 444.484 340.856 445.476 342.86C446.446 344.958 447.915 346.785 449.754 348.184C451.743 349.571 453.953 350.61 456.29 351.255C461.529 352.792 466.976 353.495 472.433 353.339C478.662 353.195 484.821 351.986 490.642 349.765C491.002 349.627 490.721 349.096 490.363 349.233H490.363Z" fill="white"/>
    <path d="M460.835 352.087C460.595 353.983 461.037 355.903 462.081 357.503C463.125 359.104 464.703 360.281 466.535 360.824C466.906 360.933 467.092 360.362 466.721 360.253C465.014 359.75 463.544 358.653 462.575 357.161C461.605 355.668 461.201 353.879 461.435 352.114C461.486 351.731 460.885 351.706 460.835 352.087V352.087Z" fill="white"/>
    <path d="M446.513 343.91C449.578 341.489 453.442 340.312 457.335 340.615C457.721 340.646 457.748 340.045 457.363 340.015C453.31 339.707 449.292 340.94 446.108 343.466C445.804 343.707 446.211 344.15 446.513 343.91H446.513Z" fill="white"/>
    <path d="M478.329 352.471C478.269 351.718 478.397 350.962 478.701 350.271C479.006 349.579 479.477 348.975 480.073 348.511C480.379 348.273 479.972 347.831 479.667 348.067C479.012 348.583 478.492 349.251 478.154 350.014C477.816 350.777 477.67 351.611 477.729 352.444C477.728 352.523 477.757 352.599 477.81 352.658C477.863 352.716 477.937 352.752 478.015 352.758C478.095 352.761 478.172 352.733 478.231 352.679C478.29 352.625 478.325 352.551 478.329 352.471Z" fill="white"/>
    <path d="M481.986 304.073C481.79 304.216 481.595 304.358 481.395 304.499C478.758 306.403 475.97 308.088 473.061 309.54C472.837 309.656 472.609 309.77 472.383 309.879C465.336 313.302 457.714 315.385 449.906 316.024C446.798 316.276 443.677 316.29 440.567 316.068C436.273 315.76 431.641 315.085 427.615 316.183C427.193 316.292 426.779 316.428 426.374 316.589L418.459 337.365C418.465 337.421 418.466 337.476 418.471 337.532L418.117 338.347C418.277 338.37 418.443 338.39 418.602 338.413C418.695 338.426 418.789 338.435 418.882 338.449C418.944 338.456 419.006 338.464 419.062 338.474C419.083 338.477 419.104 338.479 419.12 338.48C419.175 338.49 419.228 338.494 419.279 338.503C420.207 338.617 421.137 338.726 422.069 338.828C422.074 338.83 422.074 338.83 422.08 338.827C429.177 339.674 436.349 339.676 443.446 338.832C443.658 338.804 443.874 338.778 444.089 338.741C447.255 338.304 450.38 337.609 453.432 336.663C455.102 336.14 456.744 335.532 458.353 334.843C462.505 333.053 466.351 330.621 469.748 327.636C476.519 321.684 481.312 313.632 481.944 304.752C481.96 304.525 481.974 304.302 481.986 304.073Z" fill="#F0F0F0"/>
    <path d="M481.704 304.02C475.709 313.582 466.855 321.011 456.399 325.252C454.164 326.205 451.793 326.8 449.374 327.014C447.01 327.147 444.653 326.643 442.55 325.557C440.568 324.583 438.653 323.357 436.469 322.883C435.348 322.656 434.191 322.669 433.075 322.922C431.959 323.174 430.909 323.659 429.993 324.346C427.668 325.998 426.074 328.387 424.597 330.778C422.957 333.432 421.296 336.215 418.597 337.923C418.27 338.13 418.61 338.626 418.937 338.419C423.632 335.447 425.102 329.626 429.031 325.914C430.864 324.182 433.231 322.993 435.805 323.372C438.056 323.704 440.032 324.966 442.03 325.97C444.067 327.06 446.339 327.634 448.649 327.643C451.072 327.553 453.462 327.051 455.716 326.158C460.824 324.23 465.597 321.51 469.86 318.098C474.747 314.231 478.936 309.556 482.248 304.276C482.453 303.949 481.908 303.695 481.704 304.02H481.704Z" fill="white"/>
    <path d="M459.846 324.085C460.795 325.743 462.303 327.01 464.1 327.659C465.897 328.308 467.865 328.297 469.655 327.628C470.016 327.491 469.821 326.923 469.459 327.059C467.794 327.686 465.96 327.696 464.288 327.088C462.616 326.48 461.216 325.295 460.342 323.745C460.151 323.408 459.657 323.75 459.846 324.085Z" fill="white"/>
    <path d="M443.49 326.183C444.48 322.404 446.857 319.137 450.148 317.033C450.474 316.825 450.134 316.33 449.808 316.537C446.388 318.733 443.921 322.138 442.899 326.073C442.802 326.448 443.393 326.556 443.49 326.183Z" fill="white"/>
    <path d="M474.045 313.854C473.544 313.289 473.191 312.608 473.018 311.873C472.845 311.137 472.857 310.371 473.054 309.641C473.156 309.268 472.564 309.16 472.463 309.531C472.25 310.338 472.237 311.185 472.427 311.997C472.616 312.81 473.002 313.564 473.549 314.194C473.596 314.257 473.665 314.301 473.743 314.315C473.82 314.33 473.9 314.314 473.967 314.272C474.032 314.226 474.077 314.157 474.092 314.079C474.106 314.001 474.09 313.92 474.045 313.854Z" fill="white"/>
    <path d="M506.217 232.47L486.03 266.458L486.797 266.863L479.961 279.83L478.538 279.076L474.046 286.634L475.162 287.276L467.838 299.964L466.568 299.231L400.697 410.141C398.97 413.043 396.162 415.142 392.89 415.975C389.618 416.808 386.149 416.309 383.244 414.586L260.788 341.789C257.886 340.061 255.789 337.252 254.956 333.978C254.122 330.704 254.622 327.233 256.344 324.327L361.864 146.657C363.592 143.754 366.4 141.656 369.672 140.823C372.944 139.989 376.413 140.489 379.317 142.211L501.774 215.009C504.674 216.738 506.77 219.547 507.603 222.821C508.436 226.094 507.938 229.564 506.217 232.47Z" fill="#3F3D56"/>
    <path d="M387.609 407.728L264.721 334.675C263.826 334.142 263.18 333.276 262.923 332.267C262.667 331.258 262.82 330.188 263.351 329.292L369.571 150.44C370.104 149.545 370.969 148.899 371.978 148.642C372.987 148.385 374.056 148.539 374.951 149.07L497.839 222.123C498.733 222.656 499.38 223.522 499.636 224.531C499.893 225.54 499.739 226.61 499.209 227.505L392.989 406.358C392.456 407.253 391.59 407.899 390.582 408.156C389.573 408.413 388.504 408.259 387.609 407.728Z" fill="white"/>
    <path d="M438.088 182.769C438.686 182.769 439.171 182.284 439.171 181.686C439.171 181.087 438.686 180.602 438.088 180.602C437.489 180.602 437.004 181.087 437.004 181.686C437.004 182.284 437.489 182.769 438.088 182.769Z" fill="white"/>
    <path d="M431.383 310.888L328.802 249.907C328.481 249.717 328.2 249.466 327.975 249.168C327.751 248.869 327.587 248.529 327.495 248.167C327.402 247.805 327.381 247.429 327.434 247.059C327.487 246.689 327.613 246.334 327.804 246.012C327.994 245.691 328.246 245.411 328.546 245.188C328.845 244.964 329.185 244.802 329.547 244.711C329.91 244.619 330.286 244.6 330.655 244.655C331.025 244.709 331.38 244.836 331.7 245.028L434.281 306.009C434.603 306.199 434.884 306.45 435.108 306.749C435.333 307.047 435.496 307.387 435.589 307.749C435.682 308.111 435.702 308.488 435.649 308.857C435.596 309.227 435.471 309.583 435.28 309.904C435.089 310.225 434.837 310.505 434.538 310.729C434.238 310.952 433.898 311.114 433.536 311.206C433.174 311.297 432.797 311.316 432.428 311.262C432.059 311.207 431.704 311.08 431.383 310.888H431.383Z" fill="#E6E6E6"/>
    <path d="M390.424 301.439L356.682 281.381C356.362 281.19 356.082 280.939 355.859 280.64C355.636 280.342 355.473 280.002 355.382 279.641C355.29 279.28 355.27 278.904 355.323 278.535C355.376 278.166 355.502 277.812 355.692 277.491C355.882 277.171 356.134 276.891 356.432 276.668C356.73 276.445 357.07 276.283 357.431 276.191C357.792 276.099 358.167 276.079 358.536 276.132C358.905 276.186 359.259 276.311 359.58 276.501L393.321 296.56C393.642 296.75 393.921 297.002 394.144 297.3C394.367 297.599 394.529 297.938 394.621 298.3C394.713 298.661 394.733 299.036 394.68 299.405C394.626 299.774 394.501 300.129 394.311 300.449C394.121 300.77 393.869 301.049 393.571 301.272C393.272 301.496 392.933 301.658 392.572 301.75C392.211 301.842 391.836 301.862 391.467 301.808C391.098 301.755 390.744 301.63 390.424 301.439Z" fill="#E6E6E6"/>
    <path d="M377.157 323.777L343.416 303.718C342.769 303.334 342.302 302.708 342.116 301.979C341.931 301.249 342.042 300.476 342.427 299.829C342.811 299.182 343.436 298.715 344.165 298.529C344.894 298.343 345.667 298.455 346.313 298.839L380.055 318.898C380.375 319.088 380.655 319.339 380.878 319.638C381.101 319.936 381.263 320.276 381.355 320.637C381.447 320.998 381.467 321.374 381.413 321.743C381.36 322.112 381.235 322.466 381.045 322.787C380.854 323.107 380.603 323.387 380.305 323.61C380.006 323.833 379.667 323.995 379.306 324.087C378.945 324.179 378.569 324.199 378.201 324.146C377.832 324.092 377.478 323.967 377.157 323.777Z" fill="#E6E6E6"/>
    <path d="M370.363 335.218L336.621 315.159C336.3 314.969 336.019 314.718 335.795 314.42C335.571 314.121 335.408 313.781 335.316 313.42C335.224 313.058 335.203 312.682 335.256 312.312C335.31 311.943 335.435 311.588 335.625 311.267C335.816 310.946 336.068 310.666 336.367 310.443C336.666 310.219 337.006 310.057 337.367 309.966C337.729 309.874 338.105 309.855 338.474 309.909C338.843 309.963 339.198 310.089 339.518 310.28L373.26 330.339C373.582 330.528 373.863 330.78 374.088 331.078C374.312 331.377 374.476 331.717 374.568 332.079C374.661 332.44 374.682 332.817 374.629 333.187C374.576 333.557 374.45 333.912 374.259 334.234C374.069 334.555 373.816 334.835 373.517 335.059C373.218 335.282 372.877 335.444 372.515 335.535C372.153 335.627 371.777 335.646 371.407 335.591C371.038 335.537 370.683 335.41 370.363 335.218V335.218Z" fill="#E6E6E6"/>
    <path d="M402.807 323.701L331.218 281.143C330.575 280.757 330.111 280.132 329.927 279.404C329.743 278.676 329.855 277.906 330.239 277.26C330.622 276.615 331.245 276.148 331.972 275.961C332.698 275.775 333.47 275.884 334.116 276.264L405.705 318.822C406.026 319.011 406.308 319.262 406.532 319.561C406.757 319.86 406.92 320.2 407.013 320.561C407.106 320.923 407.126 321.3 407.073 321.67C407.02 322.04 406.895 322.395 406.704 322.716C406.513 323.038 406.261 323.318 405.962 323.541C405.662 323.765 405.322 323.927 404.96 324.018C404.598 324.11 404.221 324.129 403.852 324.074C403.482 324.02 403.127 323.893 402.807 323.701Z" fill="#E6E6E6"/>
    <path d="M389.162 378.089L376.911 370.806C375.813 370.151 375.019 369.087 374.704 367.848C374.39 366.609 374.58 365.295 375.233 364.195C375.886 363.096 376.948 362.301 378.187 361.985C379.425 361.669 380.738 361.857 381.838 362.509L394.09 369.792C395.189 370.446 395.984 371.51 396.3 372.75C396.615 373.99 396.426 375.305 395.772 376.405C395.119 377.506 394.055 378.301 392.816 378.617C391.576 378.933 390.262 378.743 389.162 378.089Z" fill="#6C63FF"/>
    <path d="M412.02 259.837C425.889 259.837 437.132 248.588 437.132 234.713C437.132 220.837 425.889 209.588 412.02 209.588C398.151 209.588 386.908 220.837 386.908 234.713C386.908 248.588 398.151 259.837 412.02 259.837Z" fill="#6C63FF"/>
    <path d="M0.295769 336.809H340.134V139.968C340.132 138.494 339.546 137.08 338.504 136.037C337.461 134.994 336.048 134.407 334.574 134.406H5.85602C4.38189 134.407 2.9686 134.994 1.92622 136.037C0.883831 137.08 0.297471 138.494 0.295769 139.968V336.809Z" fill="#CACACA"/>
    <path d="M329.634 142.099H10.7956V323.197H329.634V142.099Z" fill="white"/>
    <path d="M-4.76791e-06 331.482V355.773C-1.57606e-05 356.78 0.198218 357.777 0.583378 358.707C0.968539 359.637 1.53308 360.483 2.24478 361.195C2.95647 361.907 3.80139 362.472 4.73127 362.857C5.66114 363.242 6.65778 363.441 7.66428 363.441H133.096V411.378H131.43C131.299 411.378 131.169 411.404 131.049 411.454C130.928 411.504 130.818 411.577 130.726 411.67C130.633 411.762 130.56 411.872 130.51 411.993C130.46 412.114 130.434 412.243 130.434 412.374V415.709C130.434 415.839 130.46 415.969 130.51 416.09C130.56 416.211 130.633 416.32 130.726 416.413C130.818 416.505 130.928 416.579 131.049 416.629C131.169 416.679 131.299 416.705 131.43 416.705H209.296C209.427 416.705 209.556 416.679 209.677 416.629C209.798 416.579 209.907 416.505 210 416.413C210.092 416.32 210.166 416.211 210.216 416.09C210.266 415.969 210.292 415.839 210.292 415.709V412.374C210.292 412.244 210.266 412.114 210.216 411.993C210.166 411.872 210.092 411.762 210 411.67C209.907 411.577 209.798 411.504 209.677 411.454C209.556 411.404 209.427 411.378 209.296 411.378H207.63V363.441H333.061C334.068 363.441 335.064 363.242 335.994 362.857C336.924 362.472 337.769 361.907 338.481 361.195C339.192 360.483 339.757 359.637 340.142 358.707C340.527 357.777 340.726 356.78 340.726 355.773V331.482L-4.76791e-06 331.482Z" fill="#3F3D56"/>
    <path d="M283.498 202.665H132.508C131.556 202.665 130.644 202.287 129.97 201.614C129.297 200.94 128.919 200.027 128.919 199.075C128.919 198.122 129.297 197.209 129.97 196.536C130.644 195.862 131.556 195.484 132.508 195.484H283.498C284.45 195.484 285.363 195.862 286.036 196.536C286.709 197.209 287.087 198.122 287.087 199.075C287.087 200.027 286.709 200.94 286.036 201.614C285.363 202.287 284.45 202.665 283.498 202.665Z" fill="#E6E6E6"/>
    <path d="M232.835 218.874H183.171C182.219 218.874 181.306 218.496 180.633 217.822C179.96 217.149 179.581 216.236 179.581 215.283C179.581 214.331 179.96 213.418 180.633 212.744C181.306 212.071 182.219 211.693 183.171 211.693H232.835C233.787 211.693 234.7 212.071 235.373 212.744C236.046 213.418 236.425 214.331 236.425 215.283C236.425 216.236 236.046 217.149 235.373 217.822C234.7 218.496 233.787 218.874 232.835 218.874Z" fill="#E6E6E6"/>
    <path d="M232.835 251.753H183.171C182.219 251.753 181.306 251.375 180.633 250.701C179.96 250.028 179.581 249.115 179.581 248.162C179.581 247.21 179.96 246.296 180.633 245.623C181.306 244.95 182.219 244.571 183.171 244.571H232.835C233.787 244.571 234.7 244.95 235.373 245.623C236.046 246.296 236.425 247.21 236.425 248.162C236.425 249.115 236.046 250.028 235.373 250.701C234.7 251.375 233.787 251.753 232.835 251.753Z" fill="#E6E6E6"/>
    <path d="M232.835 268.593H183.171C182.699 268.593 182.233 268.5 181.797 268.32C181.362 268.139 180.966 267.875 180.633 267.542C180.3 267.208 180.035 266.812 179.855 266.377C179.675 265.941 179.582 265.474 179.582 265.003C179.582 264.531 179.675 264.064 179.855 263.628C180.035 263.193 180.3 262.797 180.633 262.464C180.966 262.13 181.362 261.866 181.797 261.685C182.233 261.505 182.699 261.412 183.171 261.412H232.835C233.307 261.412 233.773 261.505 234.209 261.685C234.644 261.866 235.04 262.13 235.373 262.464C235.706 262.797 235.971 263.193 236.151 263.628C236.332 264.064 236.424 264.531 236.424 265.003C236.424 265.474 236.332 265.941 236.151 266.377C235.971 266.812 235.706 267.208 235.373 267.542C235.04 267.875 234.644 268.139 234.209 268.32C233.773 268.5 233.307 268.593 232.835 268.593Z" fill="#E6E6E6"/>
    <path d="M260.689 235.083H155.317C154.365 235.083 153.452 234.705 152.779 234.031C152.106 233.358 151.728 232.445 151.728 231.492C151.728 230.54 152.106 229.627 152.779 228.953C153.452 228.28 154.365 227.902 155.317 227.902H260.689C261.641 227.902 262.554 228.28 263.227 228.953C263.9 229.627 264.278 230.54 264.278 231.492C264.278 232.445 263.9 233.358 263.227 234.031C262.554 234.705 261.641 235.083 260.689 235.083Z" fill="#E6E6E6"/>
    <path d="M280.984 303.073H262.951C261.332 303.073 259.78 302.429 258.636 301.284C257.491 300.139 256.848 298.586 256.848 296.967C256.848 295.347 257.491 293.794 258.636 292.649C259.78 291.504 261.332 290.861 262.951 290.861H280.984C282.603 290.861 284.155 291.504 285.3 292.649C286.444 293.794 287.087 295.347 287.087 296.967C287.087 298.586 286.444 300.139 285.3 301.284C284.155 302.429 282.603 303.073 280.984 303.073Z" fill="#6C63FF"/>
    <path d="M85.0288 258.756C102.365 258.756 116.419 244.696 116.419 227.351C116.419 210.006 102.365 195.946 85.0288 195.946C67.6925 195.946 53.6386 210.006 53.6386 227.351C53.6386 244.696 67.6925 258.756 85.0288 258.756Z" fill="#6C63FF"/>
    <path d="M170.067 138.252C170.72 138.252 171.25 137.722 171.25 137.069C171.25 136.415 170.72 135.885 170.067 135.885C169.414 135.885 168.884 136.415 168.884 137.069C168.884 137.722 169.414 138.252 170.067 138.252Z" fill="white"/>
  </g>
</svg>