<svg width="516" height="383" viewBox="0 0 516 383" fill="none" xmlns="http://www.w3.org/2000/svg">
<g clip-path="url(#clip0_303_1250)">
<path d="M475.373 93.1019C416.808 11.6663 293.092 -21.3675 171.422 14.2107C107.098 33.0198 45.0784 70.7067 14.343 143.681C-40.6 274.129 74.7597 315.792 150.192 329.07C186.668 335.49 221.021 346.276 252.413 360.96C308.891 387.378 408.861 410.787 484.245 300.744C538.883 220.984 514.383 147.346 475.373 93.1019Z" fill="#F2F2F2"/>
<path d="M135.833 109.214C135.669 107.919 135.338 106.652 134.847 105.443C134.784 105.214 134.675 105.001 134.525 104.817C134.376 104.633 134.19 104.482 133.979 104.374C133.696 104.301 133.401 104.297 133.117 104.364L128.693 105.041C128.323 105.058 127.968 105.195 127.684 105.433C127.108 106.038 127.675 107.013 127.657 107.849C127.638 108.788 126.802 109.55 125.897 109.803C124.972 109.989 124.018 109.977 123.099 109.768L116.913 108.807C118.735 108.226 120.356 107.145 121.593 105.687C122.407 104.723 122.84 102.924 121.663 102.468C121.314 102.372 120.949 102.343 120.589 102.382C117.786 102.403 115.581 100.065 112.957 99.0804C111.278 98.4909 109.455 98.447 107.75 98.9551C106.044 99.4632 104.543 100.497 103.461 101.909L106.756 102.068C107.066 102.051 107.373 102.133 107.634 102.302C108.356 102.895 107.458 104.034 107.56 104.962C107.692 106.168 109.295 106.426 110.503 106.548C111.711 106.67 113.244 107.651 112.663 108.716C106.59 110.806 100.411 104.631 94.0334 105.391C92.4193 105.583 90.8952 106.217 89.3193 106.615C79.6928 109.049 69.7408 102.555 59.9068 103.931C57.7206 104.303 55.5719 104.869 53.4862 105.623C52.1478 106.062 50.7518 106.536 49.7793 107.555C48.8068 108.573 48.4367 110.315 49.3579 111.38C46.8186 111.589 44.2624 111.346 41.808 110.663C42.4717 111.031 43.0238 111.572 43.4065 112.227C43.7891 112.883 43.9881 113.629 43.9826 114.388C40.0178 115.034 36.158 116.21 32.507 117.884C33.1884 119.017 33.9843 120.076 34.8821 121.046L29.8628 124.268C31.5586 124.695 32.4353 127.006 31.4492 128.449C33.2075 127.667 34.2972 125.645 36.1775 125.235C37.4093 124.967 38.6627 125.47 39.8312 125.943C40.9998 126.416 42.2841 126.875 43.4938 126.52C44.7035 126.165 45.5958 124.597 44.8271 123.599C49.9977 122.091 55.3414 121.257 60.7257 121.117C61.1411 121.065 61.5624 121.145 61.9298 121.345C62.6307 121.831 62.4463 122.881 62.4085 123.732C62.3708 124.584 63.035 125.703 63.7967 125.319C62.9006 126.096 63.6666 127.557 64.5264 128.374C65.3861 129.191 66.4224 130.317 65.896 131.379C65.7587 131.657 65.5257 131.878 65.3935 132.158C65.0033 132.984 65.6228 133.946 66.3535 134.495C67.0841 135.043 67.9791 135.426 68.4867 136.186C68.9942 136.945 68.7637 138.274 67.8561 138.38L65.2764 135.107C64.3951 136.02 63.7908 137.164 63.5338 138.407C66.2694 140.642 66.6808 145.19 64.3906 147.879C63.2203 149.252 61.556 150.087 60.1034 151.159C58.6508 152.231 57.3067 153.757 57.3103 155.561C57.3166 158.678 57.0618 161.574 58.2307 164.464C60.3862 169.793 62.8748 174.981 65.6819 179.998C66.419 181.315 67.3716 182.759 68.8649 182.986C66.9777 178.395 65.2789 173.733 63.7683 168.999C64.7522 169.003 65.8891 169.081 66.4659 169.878C66.9434 170.537 66.8408 171.434 66.9892 172.234C67.178 173.01 67.4927 173.749 67.9209 174.423L76.9329 190.464C77.68 191.794 78.5369 193.221 79.9647 193.76C80.8776 194.104 81.9338 194.039 82.774 194.535C83.4326 194.923 83.8762 195.613 84.5476 195.979C86.446 197.014 89.0859 195.029 90.86 196.265C91.3673 196.618 91.69 197.179 92.1575 197.584C93.796 199.002 96.4839 198.053 98.3755 199.111C99.5945 199.793 100.226 201.156 100.877 202.392C102.505 205.486 105.141 208.518 108.631 208.765C109.728 208.842 110.848 208.634 111.919 208.878C112.991 209.122 114.046 210.057 113.874 211.141C113.579 213.001 114.499 215.038 114.252 216.904C113.802 220.305 108.975 221.799 108.561 225.204C108.47 225.95 108.612 226.719 108.434 227.449C108.217 228.343 107.544 229.071 107.306 229.96C106.853 231.645 108.061 233.321 109.388 234.455C110.714 235.588 112.297 236.565 113.023 238.152C113.789 239.829 113.413 241.784 113.662 243.611C114.207 247.599 117.654 250.555 121.201 252.462C122.282 253.043 123.443 253.605 124.142 254.612C125.055 255.927 124.964 257.661 125.269 259.232C126.016 263.081 129.258 266.252 129.35 270.17C129.415 272.956 127.866 275.483 126.94 278.111C126.073 280.629 125.759 283.305 126.02 285.955C126.281 288.605 127.111 291.168 128.454 293.469C129.146 294.637 129.974 295.739 130.464 297.005C131.338 299.265 131.054 301.835 131.86 304.12C132.926 307.141 135.854 309.637 135.573 312.828C136.903 315.586 139.838 316.942 142.789 317.763L148.079 319.234C149.092 319.516 150.15 319.8 151.181 319.596C152.213 319.392 153.197 318.536 153.17 317.486C150.576 316.901 147.899 316.28 145.761 314.7C143.623 313.121 142.158 310.308 142.969 307.777C143.345 306.604 144.146 305.249 143.385 304.28C142.949 303.725 142.152 303.579 141.661 303.073C140.894 302.283 141.158 300.956 141.709 300.003C142.26 299.051 143.056 298.199 143.279 297.122C143.391 296.519 143.316 295.896 143.064 295.337C142.812 294.778 142.395 294.309 141.868 293.994C142.849 293.624 143.741 293.052 144.486 292.315C145.175 291.529 145.493 290.318 144.951 289.425C146.56 289.629 148.459 289.729 149.514 288.499C150.358 287.517 150.3 286.05 149.966 284.799C149.633 283.549 149.07 282.335 149.053 281.041C152.763 281.217 156.481 281.091 160.171 280.665C159.638 278.869 158.425 277.352 156.791 276.434C158.462 276.152 159.984 274.153 160.512 272.543C161.04 270.934 160.906 269.181 160.579 267.519C160.454 267.091 160.437 266.639 160.529 266.203C160.718 265.603 161.307 265.238 161.852 264.925L170.147 260.164C170.642 259.917 171.09 259.586 171.473 259.186C172.342 258.166 172.213 256.626 171.768 255.362C171.323 254.099 170.611 252.91 170.439 251.582C169.927 247.608 174.183 244.757 175.62 241.016C176.184 239.549 176.299 237.953 176.408 236.384C176.525 234.7 176.534 232.743 175.239 231.657C173.998 230.617 172.06 230.849 170.761 229.881C169.571 228.993 169.16 227.27 167.859 226.553C166.678 225.902 165.198 226.316 163.884 226.01C161.571 225.471 160.116 222.807 157.754 222.56C156.421 222.421 154.913 223.072 153.821 222.297C152.858 221.613 152.82 220.24 152.637 219.074C152.315 217.263 151.447 215.593 150.147 214.291C148.847 212.988 147.179 212.114 145.368 211.787C143.994 211.567 142.498 211.651 141.329 210.896C140.145 210.132 139.603 208.702 138.673 207.644C137.174 205.938 134.814 205.333 132.604 204.813L123.611 202.701C122.015 202.326 119.957 202.127 119.1 203.524C118.847 204.056 118.667 204.62 118.567 205.201C118.246 206.252 117.6 207.173 116.721 207.834C115.843 208.494 114.778 208.859 113.679 208.877C112.926 207.592 111.705 206.648 110.271 206.242C109.359 205.988 108.383 205.96 107.513 205.586C107.04 205.355 106.618 205.03 106.275 204.63C105.931 204.231 105.673 203.766 105.516 203.263C105.358 202.761 105.305 202.231 105.36 201.707C105.414 201.183 105.575 200.676 105.833 200.217C106.351 199.294 106.551 198.227 106.402 197.18C106.254 196.132 105.764 195.163 105.009 194.421C103.479 193.049 101.267 192.718 99.2166 192.855C98.6796 191.684 99.5776 190.363 100.545 189.512C101.513 188.661 102.688 187.824 102.899 186.553C103.23 184.554 100.678 183.036 98.7398 183.632C96.8018 184.228 95.5649 186.109 94.7472 187.963C94.2781 189.027 93.8792 190.148 93.1392 191.045C92.3992 191.942 91.2075 192.584 90.0803 192.296C88.4845 191.888 87.8682 189.994 87.515 188.386C87.0412 186.23 86.5646 184.043 86.6639 181.837C86.7631 179.631 87.5074 177.366 89.1352 175.872C91.7879 173.439 95.8573 173.677 99.4373 174.066C98.5915 173.113 98.8006 171.508 99.7055 170.612C100.183 170.188 100.757 169.887 101.378 169.734C101.998 169.582 102.647 169.583 103.267 169.738C104.346 169.962 105.318 170.543 106.026 171.386C107.043 172.626 107.333 174.299 108.102 175.706C108.871 177.113 110.6 178.313 112.015 177.558C113.237 176.906 113.431 175.212 113.127 173.862C112.823 172.511 112.177 171.197 112.287 169.817C112.497 167.183 115.229 165.598 117.64 164.514C120.051 163.429 122.811 161.97 123.193 159.356C123.206 158.844 123.303 158.338 123.479 157.857C123.747 157.433 124.118 157.083 124.559 156.843C131.595 152.196 138.748 147.493 146.79 144.954C147.208 144.822 147.257 144.969 147.684 144.866C148.28 144.521 147.885 143.568 147.313 143.183C146.741 142.799 145.976 142.505 145.831 141.832C145.724 141.337 146.016 140.851 146.092 140.35C146.278 139.12 144.805 137.984 143.662 138.476C143.016 137.621 144.294 136.628 145.328 136.343C148.431 135.49 151.617 134.97 154.831 134.792C155.202 134.733 155.582 134.798 155.912 134.976C156.452 135.35 156.383 136.207 156.001 136.74C155.618 137.273 155.023 137.608 154.546 138.059C154.025 138.567 153.654 139.207 153.472 139.91C153.291 140.614 153.306 141.354 153.517 142.05C155.194 142.902 157.019 143.78 158.877 143.48C160.735 143.179 162.385 141.093 161.511 139.427C160.698 137.875 158.254 137.525 157.834 135.824C157.342 133.833 160.163 132.062 159.528 130.112C159.249 129.258 158.397 128.755 157.744 128.138C156.972 127.382 156.446 126.41 156.237 125.35C156.028 124.29 156.144 123.192 156.571 122.199C155.506 122.387 154.412 122.316 153.38 121.993C152.348 121.671 151.409 121.105 150.64 120.345C149.222 118.914 148.09 116.658 146.076 116.722C144.228 116.781 142.636 118.936 140.907 118.278C140.482 118.116 140.034 117.787 139.622 117.98C139.487 118.068 139.373 118.185 139.29 118.323C139.207 118.46 139.157 118.615 139.142 118.775C138.703 120.874 139.458 123.265 138.314 125.078C137.069 127.051 134.188 127.325 132.678 129.104C131.858 130.07 131.541 131.371 130.787 132.39C130.034 133.408 128.435 134.056 127.531 133.168C127.975 132.255 128.097 131.219 127.875 130.228C127.654 129.238 127.102 128.351 126.312 127.714C125.472 127.167 124.567 126.727 123.618 126.405C122.558 125.957 121.549 125.395 120.61 124.73C120.139 124.446 119.756 124.037 119.505 123.549C119.306 122.937 119.333 122.275 119.581 121.681C120.039 120.368 120.848 119.204 121.92 118.317C122.991 117.429 124.285 116.851 125.662 116.644C126.866 116.481 128.267 116.538 129.063 115.622C129.485 115.137 129.706 114.404 130.318 114.207C130.709 114.128 131.116 114.178 131.476 114.349L135.969 115.93C136.471 116.156 137.022 116.247 137.57 116.194C137.841 116.158 138.089 116.02 138.263 115.808C138.437 115.597 138.525 115.328 138.508 115.054C138.365 114.309 137.216 113.951 137.321 113.199C137.379 112.955 137.511 112.735 137.697 112.567C139.319 110.843 141.302 109.498 143.504 108.629C145.707 107.76 148.074 107.388 150.437 107.54C151.005 108.471 150.108 109.573 149.361 110.367C148.615 111.162 148.015 112.581 148.918 113.193C149.288 113.382 149.699 113.474 150.114 113.462C151.22 113.612 152.295 113.938 153.298 114.427C154.851 115.102 156.374 115.841 157.867 116.644C157.735 115.66 157.609 114.624 157.982 113.704C158.355 112.784 159.416 112.063 160.342 112.421C161.235 112.766 161.693 113.947 162.644 114.055C163.912 114.2 164.413 112.327 163.883 111.166C163.353 110.005 162.304 109.033 162.216 107.76C162.157 106.902 162.484 105.837 161.798 105.317C161.554 105.16 161.276 105.063 160.988 105.033L143.848 101.881C142.83 101.694 141.359 101.837 141.314 102.87C141.289 103.447 141.805 104.018 141.576 104.548C141.332 105.114 140.532 105.062 139.949 105.262C139.044 105.573 138.59 106.646 138.677 107.598C138.836 108.544 139.203 109.443 139.751 110.231C138.636 109.765 136.948 109.679 135.833 109.214Z" fill="#3F3D56"/>
<path d="M122.157 94.6743C121.076 94.3169 119.911 94.3003 118.821 94.6267C117.73 94.953 116.766 95.6067 116.06 96.4989C115.778 96.8702 115.541 97.3821 115.777 97.7842C116.116 98.3606 116.979 98.1329 117.615 97.9267C118.55 97.5928 119.568 97.5686 120.518 97.8575C121.116 98.0625 121.651 98.4248 122.251 98.6221C122.543 98.7442 122.863 98.7845 123.176 98.7388C123.489 98.693 123.784 98.5629 124.029 98.3624C124.441 97.9426 124.467 97.29 124.468 96.7022C124.496 96.5054 124.481 96.3048 124.422 96.115C124.363 95.9251 124.262 95.7508 124.127 95.6048C123.887 95.4657 123.617 95.3859 123.34 95.372C122.719 95.2572 122.158 94.9294 121.753 94.4452" fill="#3F3D56"/>
<path d="M128.337 92.9548C128.095 92.9417 127.854 92.9909 127.637 93.0978C127.419 93.2047 127.233 93.3657 127.096 93.5653C126.959 93.7649 126.876 93.9963 126.854 94.2374C126.832 94.4785 126.873 94.7211 126.972 94.9419C127.715 95.1443 128.491 95.1949 129.254 95.0906C129.635 95.0316 129.989 94.8613 130.273 94.6013C130.557 94.3413 130.757 94.0031 130.849 93.6294C129.951 93.7928 129.024 93.6159 128.249 93.1333" fill="#3F3D56"/>
<path d="M149.073 90.0831C147.051 90.5126 145.087 91.1793 143.222 92.0693C144.101 92.407 144.849 93.0181 145.354 93.8125C145.86 94.6069 146.097 95.5425 146.03 96.4815C145.951 96.842 145.96 97.2162 146.056 97.5724C146.271 98.093 146.894 98.2883 147.441 98.422C148.425 98.7211 149.452 98.8521 150.479 98.8094C150.993 98.7825 151.492 98.6281 151.931 98.36C152.37 98.0919 152.735 97.7186 152.994 97.274C153.143 96.8519 153.317 96.4394 153.517 96.0388C154.829 94.0418 158.727 96.4564 160.136 94.5263C160.632 93.8464 160.587 92.8229 161.234 92.2841C161.569 92.0494 161.956 91.9015 162.363 91.8537C165.196 91.2913 168.058 90.884 170.935 90.6337C172.299 90.5151 174.076 90.0259 174.088 88.6582C168.952 87.6503 163.626 88.3662 158.94 90.6945C157.251 91.5397 155.018 93.3175 153.391 92.197C152.782 91.7775 152.812 90.6478 151.974 90.1761C151.117 89.6938 149.983 89.89 149.073 90.0831Z" fill="#3F3D56"/>
<path d="M165.869 93.2217L168.28 93.6846C167.836 93.665 167.393 93.7401 166.981 93.905C166.568 94.07 166.196 94.3209 165.888 94.6411C165.581 94.9613 165.345 95.3433 165.197 95.7618C165.048 96.1802 164.991 96.6254 165.029 97.0677C167.287 97.8214 169.748 97.088 172.126 97.1882C174.504 97.2884 177.271 98.9859 176.865 101.33C176.743 102.038 176.333 102.747 176.546 103.434C176.695 103.915 177.12 104.257 177.36 104.7C177.86 105.624 177.461 106.793 176.829 107.633C176.198 108.473 175.35 109.143 174.796 110.036C173.418 112.256 174.201 115.127 175.022 117.607C175.259 118.544 175.697 119.419 176.306 120.17C177.522 121.462 179.504 121.575 181.279 121.601C182.57 121.619 184.05 121.556 184.867 120.556C185.933 119.25 185.188 117.213 185.89 115.68C186.527 114.289 188.152 113.692 189.624 113.268C192.321 112.492 195.069 111.833 197.618 110.661C200.784 109.206 203.743 106.939 207.222 106.751C208.199 106.699 209.199 106.814 210.139 106.547C211.08 106.279 211.973 105.467 211.902 104.493C211.841 103.66 211.136 103.049 210.585 102.421C210.034 101.794 209.602 100.829 210.108 100.165L219.228 98.4627C218.582 96.7022 218.078 94.3835 219.564 93.2375C220.1 92.824 220.818 92.6588 221.274 92.1589C222.052 91.307 221.661 89.8394 220.763 89.1149C219.865 88.3903 218.651 88.2221 217.501 88.1267C213.502 87.7948 209.48 88.0141 205.473 88.2335C197.64 88.6626 189.808 89.0916 181.976 89.5206C180.399 89.6069 178.578 89.475 177.132 90.0125C175.908 90.4676 175.038 91.3029 173.637 91.5964C171.053 92.1382 168.208 91.7716 165.869 93.2217Z" fill="#3F3D56"/>
<path d="M209.059 112.264C208.814 112.225 208.562 112.282 208.358 112.423C208.222 112.572 208.142 112.763 208.129 112.964C207.974 113.851 208.159 114.764 208.648 115.52C208.897 115.891 209.242 116.188 209.645 116.381C210.048 116.574 210.495 116.656 210.941 116.618C212.027 116.48 212.827 115.554 213.825 115.103C215.363 114.407 221.895 113.323 217.376 110.884C215.819 110.043 214.813 110.785 213.585 111.339C212.189 112.053 210.624 112.373 209.059 112.264Z" fill="#3F3D56"/>
<path d="M248.638 91.8445C248.111 92.0599 247.669 92.4439 247.383 92.9364C247.251 93.1865 247.22 93.4777 247.297 93.7497C247.374 94.0218 247.553 94.2538 247.796 94.3979C247.994 94.4693 248.202 94.5024 248.412 94.4955L250.557 94.5595C251.469 94.5867 252.607 94.7807 252.852 95.6584C253.034 96.3101 252.627 97.1475 253.118 97.6132C253.329 97.7763 253.582 97.8751 253.848 97.8977C254.555 98.0791 255.293 98.1029 256.01 97.9674C257.571 97.549 256.751 96.5969 257.242 95.7492C257.994 94.4521 257.864 95.2373 259.19 94.4939C260.169 93.9449 261.434 92.949 260.617 91.5498C259.196 89.1166 250.735 90.7992 248.638 91.8445Z" fill="#3F3D56"/>
<path d="M290.984 90.6212L289.738 90.7873C286.929 91.1619 284.104 91.54 281.398 92.383C282.569 92.8457 283.798 93.147 285.051 93.2786C285.74 93.3124 286.425 93.4097 287.097 93.5692C288.292 93.9247 289.496 94.8428 290.65 94.3725C291.366 94.0809 291.6 93.3361 292.193 92.9413C292.602 92.6688 294.156 92.2276 294.329 91.9525C295.733 89.7283 292.063 90.4773 290.984 90.6212Z" fill="#3F3D56"/>
<path d="M296.454 96.2791C294.79 97.2089 293.246 98.3388 291.857 99.6435C291.272 100.193 290.674 100.877 290.727 101.678C290.797 102.743 291.932 103.36 292.916 103.776L296.898 105.461C297.381 104.781 296.939 103.841 296.44 103.173C295.941 102.504 295.347 101.73 295.568 100.926C295.819 100.007 296.94 99.6945 297.88 99.5363C299.41 99.2786 303.54 99.2992 303.044 96.8339C302.459 93.929 297.991 95.4208 296.454 96.2791Z" fill="#3F3D56"/>
<path d="M295.654 260.67C295.275 261.766 295.239 263.058 295.895 264.016C296.631 265.091 298.103 265.491 299.378 265.219C300.646 264.881 301.777 264.155 302.611 263.141C303.374 262.292 304.001 261.331 304.471 260.291C305.127 258.671 305.59 256.979 305.85 255.25L307.086 248.763C307.363 247.313 307.352 242.868 304.685 244.316C303.957 244.712 302.27 247.836 301.506 248.721C300.13 250.318 299.948 251.867 299.224 253.801C298.316 256.224 296.493 258.243 295.654 260.67Z" fill="#3F3D56"/>
<path d="M436.508 293.868C435.636 293.528 434.789 293.125 433.974 292.663C433.157 294.907 432.723 297.272 432.689 299.659L438.661 296.283C439.559 295.775 440.577 295.069 440.558 294.038C440.566 293.911 440.539 293.783 440.481 293.67C440.423 293.556 440.336 293.46 440.228 293.392C440.095 293.339 439.95 293.322 439.809 293.343C438.924 293.417 438.116 293.852 437.281 294.155C436.446 294.458 435.469 294.618 434.703 294.168" fill="#3F3D56"/>
<path d="M468.007 295.873C467.352 296.051 466.712 296.281 466.093 296.56C464.722 297.256 463.79 298.58 462.557 299.497C461.377 300.375 459.957 300.857 458.562 301.326C458.152 301.689 458.34 302.418 458.786 302.737C459.264 303.009 459.813 303.132 460.363 303.091C461.811 303.123 463.338 303.137 464.607 302.437C465.322 301.974 465.991 301.443 466.605 300.853C468.088 299.616 469.87 298.8 471.634 298.011C472.276 297.769 472.869 297.414 473.387 296.964C474.495 295.873 474.573 294.189 472.975 293.818C471.684 293.518 469.237 295.475 468.007 295.873Z" fill="#3F3D56"/>
<path d="M481.925 286.788C481.997 286.038 481.897 285.28 481.633 284.574C481.369 283.867 480.948 283.23 480.401 282.71C480.385 284.212 480.339 285.812 479.494 287.054C478.891 287.939 477.947 288.537 477.287 289.38C476.627 290.223 476.334 291.559 477.108 292.299C477.603 292.675 478.206 292.883 478.827 292.891C480.368 293.072 482.152 293.173 483.233 292.061C483.823 291.453 484.109 290.554 484.829 290.108C485.097 289.995 485.336 289.824 485.529 289.607C485.826 289.135 485.354 288.513 484.823 288.343C484.292 288.173 483.706 288.253 483.172 288.092C482.638 287.93 482.148 287.33 482.422 286.844" fill="#3F3D56"/>
<path d="M457.189 231.716C456.381 231.912 455.543 231.962 454.717 231.862C453.346 231.61 452.278 230.576 451.17 229.729C448.537 227.726 445.337 226.609 442.028 226.537C439.019 226.481 435.981 227.296 433.025 226.727C433.219 227.8 434.138 228.605 435.118 229.084C436.099 229.562 437.181 229.803 438.167 230.272C439.745 231.03 440.997 232.331 441.692 233.937C442.01 234.677 442.209 235.483 442.69 236.129C443.673 237.45 445.535 237.741 447.179 237.632C449.322 237.492 451.56 236.876 453.554 237.674C455.079 238.284 456.171 239.618 457.445 240.655C458.718 241.692 460.512 242.462 461.974 241.714C460.455 241.222 459.133 240.259 458.201 238.963C457.269 237.668 456.776 236.109 456.793 234.514C458.227 234.646 462.358 234.595 462.136 232.159C461.947 230.096 458.421 231.493 457.189 231.716Z" fill="#3F3D56"/>
<path d="M438.427 248.508C438.681 247.112 440.074 245.879 439.64 244.529C439.34 243.594 438.256 243.133 437.275 243.11C436.293 243.087 435.329 243.379 434.347 243.407C433.709 243.373 433.068 243.382 432.431 243.434C430.482 243.754 429.281 245.795 427.445 246.52C426.329 246.961 425.075 246.877 423.914 247.182C421.278 247.874 419.61 250.363 417.768 252.369C414.791 255.597 410.913 257.857 406.636 258.857C405.137 259.203 403.526 259.425 402.335 260.398C400.758 261.686 400.37 263.894 400.019 265.899C399.049 271.436 397.567 276.872 395.592 282.135L401.851 282.934C403.04 283.086 404.273 283.234 405.42 282.882C406.253 282.568 407.042 282.148 407.768 281.632C410.555 279.903 413.674 278.778 416.924 278.33C418.563 278.105 420.281 278.064 421.819 278.672C423.357 279.281 424.677 280.661 424.806 282.309C425.471 282.103 426.179 282.08 426.856 282.245C427.533 282.409 428.152 282.754 428.648 283.243C429.628 284.241 430.27 285.521 430.483 286.903C430.648 287.758 430.813 288.784 431.607 289.143C432.255 289.435 432.999 289.12 433.708 289.063C436.114 288.871 438.111 291.674 440.476 291.192C443.012 290.674 443.635 286.878 446.109 286.118C447.53 285.681 449.524 286.212 450.204 284.891C450.804 283.727 449.607 282.383 449.731 281.08C449.883 279.474 451.778 278.793 453.238 278.108C458.275 275.747 460.665 268.973 458.224 263.978C456.778 261.018 453.933 258.688 453.408 255.436C453.003 252.934 453.99 250.017 452.394 248.048C451.582 247.046 450.207 246.493 449.724 245.298C449.42 244.546 449.542 243.692 449.378 242.897C449.215 242.102 448.521 241.271 447.735 241.477C445.455 242.075 444.728 249.113 443.507 250.823C441.652 253.422 437.842 251.71 438.427 248.508Z" fill="#3F3D56"/>
<path d="M396.284 234.375C395.505 234.157 394.654 233.942 393.908 234.254C393.161 234.566 392.725 235.661 393.325 236.204C398.012 236.022 402.728 235.841 407.376 236.477C412.73 237.21 418.03 239.025 423.408 238.491C420.336 237.585 417.213 236.861 414.056 236.322L408.79 235.317C407.378 235.022 405.951 234.801 404.515 234.657C401.511 234.409 399.238 235.203 396.284 234.375Z" fill="#3F3D56"/>
<path d="M400.977 218.062C400.588 218.029 400.106 218.001 399.904 218.336C399.712 218.655 399.932 219.077 399.829 219.435C399.688 219.925 399.046 220.05 398.541 219.983C398.036 219.917 397.489 219.757 397.041 220C396.814 220.155 396.644 220.38 396.555 220.64C396.467 220.9 396.465 221.182 396.55 221.443C396.733 221.962 397.029 222.433 397.417 222.824C398.079 223.657 398.833 224.413 399.665 225.078C401.276 226.266 403.459 226.838 404.474 228.563C404.617 228.898 404.837 229.194 405.116 229.427C405.603 229.735 406.238 229.501 406.763 229.261L408.601 228.422C408.932 228.303 409.228 228.102 409.461 227.838C409.881 227.269 409.623 226.459 409.27 225.845C408.918 225.232 408.466 224.597 408.542 223.894C408.677 222.64 410.29 222.16 410.954 221.087C411.623 220.005 411.187 218.612 411.264 217.343C411.355 215.859 412.288 213.928 410.786 212.819C409.51 211.877 408.291 212.747 407.374 213.788C405.442 215.982 404.529 218.358 400.977 218.062Z" fill="#3F3D56"/>
<path d="M412.136 195.886C412.764 197.087 414.072 197.804 414.757 198.973C415.499 200.241 415.414 201.879 416.219 203.107C417.045 204.368 418.706 205.037 419.169 206.471C419.675 208.036 418.528 209.939 419.442 211.306C419.613 211.53 419.828 211.716 420.074 211.852C420.32 211.988 420.592 212.072 420.872 212.097C421.152 212.123 421.434 212.09 421.701 212.001C421.968 211.912 422.213 211.769 422.422 211.58C422.807 211.161 423.014 210.607 422.997 210.038C422.98 209.469 422.741 208.929 422.332 208.533C421.79 208.039 421.013 207.826 420.561 207.25C420.326 206.918 420.169 206.536 420.102 206.134C419.856 204.975 419.895 203.774 420.217 202.633C420.338 202.344 420.369 202.025 420.305 201.718C420.102 201.127 419.301 201.085 418.739 200.81C417.462 200.188 417.493 198.387 417.716 196.985C417.568 197.919 414.24 196.331 413.892 195.802C413.2 194.752 413.576 192.726 413.439 191.565C411.945 192.285 411.369 194.418 412.136 195.886Z" fill="#3F3D56"/>
<path d="M378.615 214.363C378.001 213.676 377.076 212.957 376.252 213.371C375.624 213.687 375.451 214.556 375.697 215.214C375.997 215.854 376.459 216.404 377.037 216.81C378.753 218.224 380.601 219.501 382.098 221.144C384.776 224.086 386.195 228.055 389.109 230.765C389.694 231.394 390.47 231.813 391.316 231.959C392.165 232.038 393.118 231.495 393.216 230.649C393.296 229.952 392.81 229.328 392.335 228.812C391.203 227.581 389.964 226.449 388.896 225.164C388.402 224.67 388.092 224.023 388.017 223.329C388.011 222.637 388.643 221.913 389.314 222.084C388.498 221.876 387.892 220.517 386.695 220.262C385.694 220.049 385.452 220.668 384.26 220.157C381.988 219.184 380.206 216.143 378.615 214.363Z" fill="#3F3D56"/>
<path d="M432 147.469C431.349 147.276 430.708 147.047 430.081 146.784C428.394 146.278 426.162 147.517 426.387 149.263C426.536 150.422 427.616 151.204 428.213 152.21C429.098 153.702 428.862 155.594 428.397 157.265C428.283 157.782 428.066 158.272 427.759 158.703C427.329 159.159 426.816 159.528 426.247 159.79C423.969 161.067 421.96 162.772 420.331 164.812C420.154 165.001 420.031 165.233 419.974 165.485C419.893 166.075 420.486 166.504 420.821 166.995C421.566 168.087 421.028 169.557 421.101 170.876C421.09 171.062 421.127 171.249 421.208 171.417C421.288 171.586 421.411 171.731 421.564 171.839C422.013 172.066 422.544 171.679 422.788 171.239C423.595 169.778 422.987 167.432 424.501 166.727C424.788 166.594 425.135 166.538 425.326 166.287C425.629 165.888 425.337 165.297 425.49 164.82C425.721 164.104 426.701 164.072 427.453 164.104C428.748 164.158 430.043 163.986 431.279 163.595C431.763 163.48 432.204 163.225 432.545 162.862C432.998 162.298 432.958 161.495 432.867 160.777C432.414 157.199 431.28 153.741 429.526 150.589C430.856 150.758 432.303 150.906 433.451 150.213C434.094 149.825 434.864 148.665 434.546 147.875C434.041 146.627 433.131 147.678 432 147.469Z" fill="#3F3D56"/>
<path d="M261.471 167.148C261.63 168.001 261.787 168.9 261.507 169.721C261.227 170.543 260.347 171.229 259.516 170.978C258.871 170.782 258.498 170.134 258.04 169.64C255.493 166.892 249.746 168.483 248.173 165.084C247.53 163.696 247.967 162.034 247.529 160.569C247.252 159.723 246.703 158.992 245.966 158.492C245.229 157.991 244.346 157.75 243.457 157.805C242.646 157.922 241.856 158.158 241.113 158.504C236.138 160.495 230.916 161.8 225.588 162.384C224.576 162.446 223.574 162.628 222.605 162.927C220.418 163.719 218.923 165.746 217.86 167.813C216.796 169.881 216.011 172.12 214.585 173.957C213.086 175.888 210.986 177.24 209.027 178.702C208.272 179.188 207.644 179.846 207.194 180.622C206.769 181.494 206.793 182.507 206.826 183.476L207.226 195.239C207.278 196.752 207.342 198.32 208.02 199.674C208.866 201.364 210.538 202.472 211.698 203.966C212.881 205.501 213.498 207.397 213.443 209.334C213.418 210.113 213.341 211.034 213.948 211.523C214.317 211.762 214.749 211.886 215.189 211.88L231.114 213.182C233.915 213.411 237.019 213.788 238.848 215.92C239.711 216.927 240.405 218.374 241.727 218.482C242.294 218.529 242.846 218.296 243.413 218.251C244.844 218.138 246.101 219.223 246.894 220.419C248.095 222.241 248.64 224.417 248.44 226.589C248.31 227.953 247.887 229.278 247.796 230.645C247.448 235.846 251.861 240.365 251.946 245.576C251.996 248.642 250.54 251.506 249.12 254.224C251.412 257.693 249.535 262.312 250.448 266.367C251.313 270.215 254.524 273.227 255.323 277.089C255.69 278.856 255.711 281.032 257.271 281.942C257.955 282.276 258.714 282.428 259.475 282.383C264.06 282.438 268.593 281.406 272.703 279.374C274.632 278.417 276.632 276.989 276.968 274.864C277.24 273.15 276.37 271.233 277.256 269.74C278.299 267.98 280.972 268.12 282.507 266.767C284.997 264.572 283.055 260.386 284.064 257.225C284.971 254.384 288.093 252.874 289.641 250.324C290.25 249.227 290.687 248.043 290.937 246.814C291.646 243.876 292.087 240.88 292.255 237.863C292.296 236.029 292.432 234.199 292.661 232.38C294.329 222.021 304.577 215.085 307.905 205.134C308.222 204.183 308.372 202.918 307.526 202.38C307.024 202.141 306.455 202.081 305.914 202.211L298.573 203.136C297.662 203.251 296.695 203.358 295.858 202.98C295.02 202.601 294.42 201.543 294.864 200.739C296.111 198.482 293.547 195.63 292.407 193.318C289.339 187.09 285.684 181.169 281.494 175.632C281.226 175.348 281.058 174.983 281.016 174.594L283.099 174.664C282.396 172.142 281.235 169.382 278.783 168.46C277.402 167.94 275.872 168.12 274.398 168.2C270.176 168.431 265.65 167.794 261.471 167.148Z" fill="#3F3D56"/>
<path d="M274.401 110.321C275.506 111.493 276.744 112.736 278.343 112.941C281.166 113.302 283.196 110.384 284.488 107.85C284.536 108.496 284.834 109.098 285.319 109.528C285.805 109.957 286.438 110.181 287.086 110.151C287.783 110.034 288.448 109.774 289.04 109.388C294.634 106.333 300.899 104.715 307.274 104.678C307.213 104.195 307.333 103.707 307.61 103.308C307.888 102.908 308.304 102.626 308.778 102.514C310.074 102.258 311.241 103.377 311.867 104.541C312.492 105.704 312.882 107.052 313.875 107.923C314.868 108.793 316.792 108.755 317.184 107.495C317.561 106.284 316.299 105.252 315.25 104.538C314.202 103.825 313.097 102.504 313.803 101.451C319.159 100.266 324.548 99.0768 330.029 98.8413C330.962 98.8737 331.892 98.7137 332.761 98.3711C333.596 97.9613 334.261 97.0309 334.036 96.128C332.84 96.409 331.587 96.3276 330.438 95.8943C329.288 95.4611 328.294 94.6955 327.581 93.6952C335.186 93.0681 343.275 92.5336 350.014 96.1094C350.823 97.8443 346.701 99.2878 347.804 100.853C348.156 101.352 348.861 101.41 349.471 101.422C354.155 101.508 358.865 101.594 363.496 100.887C365.188 100.629 366.898 100.264 368.596 100.474C371.426 100.822 373.847 102.709 376.631 103.324C377.764 103.575 379.034 103.583 379.99 102.925C380.945 102.266 381.355 100.766 380.573 99.9103C383.194 97.3432 387.544 97.9794 391.002 99.2085C394.461 100.437 397.737 102.42 401.397 102.693C404.021 102.89 406.682 102.184 409.276 102.633C410.905 102.915 412.422 103.639 414.015 104.084C417.028 104.926 420.214 104.748 423.342 104.789C431.323 104.896 439.216 106.464 446.632 109.413C447.596 109.727 448.48 110.249 449.221 110.942C449.911 111.68 450.263 112.827 449.799 113.725L442.136 112.606C442.858 114.027 444.726 114.269 446.243 114.759C447.76 115.248 449.332 116.922 448.421 118.229C446.777 117.706 445.288 119.348 444.458 120.859C443.628 122.37 442.616 124.179 440.894 124.271C439.351 124.353 437.486 123.041 436.481 124.213C437.87 125.964 439.059 127.863 440.027 129.877C441.02 131.945 441.727 134.55 440.385 136.411C440.174 136.743 439.853 136.991 439.479 137.113C438.382 137.39 437.67 136.05 436.884 135.237C435.893 134.214 434.395 133.924 433.053 133.444C431.712 132.964 430.298 132.019 430.193 130.599C430.128 129.716 430.595 128.894 430.939 128.078C431.517 126.701 431.769 125.21 431.677 123.72C431.602 122.521 431.266 121.275 430.404 120.437C429.543 119.6 428.055 119.334 427.131 120.101C426.699 120.459 426.353 121.031 425.793 121.053C424.803 121.091 424.042 119.366 423.246 119.954C423.339 120.582 423.209 121.222 422.878 121.763C420.501 123.829 416.849 122.955 413.784 123.685C412.327 124.102 410.932 124.711 409.635 125.496C409.15 125.703 408.738 126.049 408.449 126.49C408.067 127.233 408.488 128.185 409.163 128.679C409.878 129.117 410.681 129.391 411.515 129.481C415.252 130.188 419.042 131.283 421.992 133.681C424.942 136.079 426.876 140.043 425.943 143.726L418.575 136.691C418.855 139.645 419.013 142.607 419.051 145.577C419.099 146.157 419.019 146.741 418.818 147.287C418.292 148.446 416.869 148.836 415.621 149.092C415.274 149.158 414.945 149.296 414.656 149.498C414.366 149.7 414.122 149.961 413.941 150.264C413.759 150.567 413.644 150.904 413.602 151.255C413.561 151.605 413.594 151.961 413.699 152.297C414.142 153.741 415.248 154.867 416.26 155.988C417.271 157.11 418.267 158.384 418.4 159.889C418.532 161.393 417.396 163.088 415.889 162.984C414.746 162.905 413.898 161.882 413.411 160.846C412.923 159.81 412.633 158.656 411.901 157.776C409.684 155.112 404.705 156.253 402.719 153.413C402.213 153.987 401.861 154.68 401.699 155.428C401.536 156.175 401.568 156.952 401.79 157.684C402.714 157.106 403.979 157.643 404.673 158.483C405.367 159.323 405.694 160.399 406.24 161.342C406.975 162.615 408.146 163.743 408.249 165.21C408.221 165.764 408.231 166.32 408.277 166.873C408.459 167.761 409.21 168.399 409.731 169.142C410.944 170.869 410.884 173.243 410.102 175.203C409.321 177.164 407.917 178.802 406.527 180.39C404.098 183.164 401.62 185.922 398.741 188.225C397.919 188.883 397.043 189.529 396.531 190.448C396.019 191.367 395.993 192.657 396.779 193.356C396.217 193.384 395.208 193.661 394.645 193.689C394.447 191.434 394.404 189.168 394.516 186.906C392.296 185.841 389.906 188.694 390.192 191.138C390.479 193.583 392.248 195.544 393.508 197.659C394.429 199.206 395.113 201.009 394.806 202.782C394.498 204.555 392.914 206.191 391.12 206.035C388.266 205.786 387.072 201.692 384.246 201.224C383.997 201.165 383.735 201.191 383.502 201.297C383.083 201.527 383.01 202.088 382.986 202.566C382.871 204.91 382.771 207.347 383.686 209.509C385.026 212.67 388.487 215.326 387.761 218.682C383.85 216.865 381.817 212.483 380.893 208.273C379.97 204.063 379.816 199.644 378.161 195.664C376.905 197.274 374.263 195.943 373.115 194.255C372.027 192.654 371.356 190.802 370.3 189.18C369.244 187.557 367.626 186.105 365.692 186.016C363.663 185.922 361.904 187.313 360.357 188.627C359.085 189.708 357.778 190.831 357.035 192.325C355.953 194.499 356.236 197.062 356.183 199.49C356.127 202.114 355.571 204.883 353.781 206.804C351.991 208.725 348.687 209.395 346.712 207.663C345.682 206.759 345.182 205.409 344.738 204.112C342.595 197.863 340.811 191.497 339.393 185.044C339.061 186.517 337.767 188.415 336.531 187.548C336.253 187.315 336.029 187.025 335.871 186.699C333.565 182.793 329.295 180.451 324.98 179.046C320.665 177.641 316.125 176.986 311.858 175.443C309.467 174.577 307.183 173.44 305.052 172.055C304.508 172.852 304.191 173.782 304.133 174.745C304.076 175.709 304.28 176.67 304.725 177.527C305.671 179.201 307.813 180.17 309.646 179.585C310.594 179.282 311.394 178.625 312.334 178.3C313.274 177.976 314.536 178.135 314.947 179.04C315.341 179.907 314.746 180.955 315.041 181.859C315.49 183.237 317.57 183.343 318.297 184.597C318.838 185.529 318.392 186.768 317.62 187.521C316.848 188.273 315.817 188.686 314.874 189.21C311.815 190.91 309.639 193.812 306.965 196.07C304.292 198.328 300.519 199.976 297.333 198.528C298.092 194.685 293.511 191.863 292.668 188.037C292.391 186.778 292.534 185.44 292.138 184.213C291.565 182.436 289.987 181.214 288.693 179.868C287.124 178.217 285.901 176.269 285.097 174.138C284.293 172.007 283.924 169.737 284.013 167.462C284.083 165.881 284.373 164.274 284.013 162.732C283.652 161.191 282.375 159.699 280.793 159.769C277.179 159.929 272.626 160.197 270.73 157.119C270.053 156.02 269.758 154.411 270.737 153.569C271.427 152.975 272.446 153.031 273.352 153.12L281.496 153.921C283.4 154.108 285.459 154.262 287.093 153.267C288.728 152.272 289.436 149.631 287.922 148.461C286.817 147.606 284.836 147.652 284.514 146.292C284.246 145.16 285.501 143.875 284.823 142.928C284.338 142.249 283.245 142.438 282.584 142.946C281.922 143.455 281.441 144.199 280.701 144.584C279.401 145.26 277.849 144.617 276.451 144.18C275.053 143.743 273.179 143.706 272.501 145.003C271.742 146.454 273.173 148.356 272.421 149.81C271.426 151.732 268.056 150.638 266.659 152.291C265.055 154.189 267.75 157.018 267.209 159.442C266.519 159.784 265.751 159.941 264.982 159.897C264.213 159.854 263.468 159.612 262.82 159.196C262.183 158.763 261.675 158.165 261.351 157.467C261.027 156.768 260.898 155.995 260.978 155.23C261.112 154.139 261.681 153.026 261.3 151.996C260.991 151.162 260.154 150.666 259.376 150.237L251.463 145.867C250.728 147.229 251.657 148.917 252.819 149.94C253.98 150.963 255.435 151.734 256.198 153.08C256.681 154.013 256.789 155.094 256.501 156.104C256.212 157.114 255.549 157.975 254.647 158.513C254.533 158.591 254.405 158.644 254.269 158.667C254.134 158.691 253.995 158.685 253.862 158.65C253.736 158.575 253.626 158.477 253.538 158.359C253.451 158.242 253.388 158.108 253.353 157.966C251.957 154.396 249.861 150.875 246.51 149.01C243.158 147.145 238.342 147.529 236.145 150.671C235.623 151.417 235.272 152.267 234.818 153.056C232.402 157.248 227.222 159.233 222.383 159.103C221.91 159.13 221.439 159.019 221.027 158.785C220.244 158.245 220.28 157.1 220.399 156.158L220.907 152.159C221.009 151.356 221.157 150.469 221.793 149.968C222.69 149.261 223.983 149.707 225.124 149.69C225.989 149.65 226.821 149.345 227.506 148.816C228.192 148.288 228.698 147.561 228.956 146.735C229.187 145.901 229.186 145.02 228.952 144.187C228.719 143.354 228.262 142.6 227.632 142.007C227.109 141.516 226.406 140.899 226.683 140.237C226.793 140.054 226.942 139.897 227.119 139.778C227.297 139.658 227.498 139.579 227.71 139.546C229.76 138.951 231.927 138.795 233.944 138.093C235.96 137.391 237.916 135.954 238.393 133.874C238.54 133.237 238.606 132.465 239.179 132.149C239.467 132.028 239.775 131.965 240.087 131.964C241.181 131.808 242.176 131.249 242.878 130.397C243.579 129.545 243.936 128.462 243.878 127.36C244.845 126.685 246.199 127.181 247.134 127.899C248.069 128.617 248.894 129.565 250.032 129.874C252.152 130.451 254.2 128.575 256.397 128.566C257.321 128.563 258.278 128.889 259.147 128.576C260.028 128.259 260.554 127.382 261.231 126.735C261.907 126.087 263.094 125.692 263.718 126.39L263.186 122.454C264.257 122.724 265.374 122.762 266.461 122.566C267.548 122.37 268.58 121.943 269.489 121.315L262.616 118.995C262.376 118.935 262.156 118.817 261.973 118.651C261.473 118.114 261.97 117.276 262.376 116.665C263.348 115.202 263.511 112.794 261.913 112.066C260.822 111.569 259.569 112.166 258.522 112.749L253.506 115.544C253.346 116.497 254.512 117.037 255.235 117.679C255.672 118.067 255.981 118.578 256.122 119.146C256.263 119.713 256.229 120.309 256.025 120.857C255.82 121.405 255.455 121.878 254.977 122.214C254.498 122.55 253.929 122.734 253.344 122.741C253.675 123.17 253.904 123.668 254.016 124.198C254.127 124.728 254.118 125.276 253.989 125.802L250.614 126.044C250.235 126.12 249.842 126.043 249.52 125.831C249.159 125.51 249.207 124.949 249.124 124.474C248.922 123.327 247.798 122.523 246.651 122.317C245.504 122.111 244.331 122.375 243.195 122.636C242.713 122.809 242.184 122.797 241.71 122.602C241.438 122.425 241.232 122.165 241.122 121.86C240.624 120.654 241.09 119.236 241.889 118.205C242.689 117.173 243.784 116.419 244.767 115.56C247.118 113.499 248.845 110.821 249.754 107.831C251.612 107.053 253.535 105.996 255.393 105.218C258.258 103.769 261.47 103.147 264.669 103.422L270.962 103.542C272.825 103.578 274.738 103.623 276.461 104.333C278.183 105.043 279.697 106.578 279.816 108.436C279.852 108.646 279.833 108.862 279.763 109.064C279.692 109.265 279.572 109.445 279.412 109.587C279.169 109.72 278.894 109.782 278.617 109.766C276.879 109.827 276.139 110.26 274.401 110.321Z" fill="#3F3D56"/>
<path d="M224.247 130.027C224.493 129.794 224.67 129.499 224.759 129.172C224.847 128.846 224.844 128.501 224.749 128.176C224.151 127.946 223.5 127.887 222.87 128.005C222.24 128.124 221.656 128.417 221.183 128.849C220.81 129.226 220.489 129.65 220.228 130.111C219.401 131.459 218.67 133.07 219.149 134.576C219.188 134.741 219.259 134.896 219.359 135.032C219.459 135.168 219.585 135.283 219.73 135.37C219.944 135.456 220.176 135.493 220.407 135.476C221.318 135.475 222.228 135.419 223.132 135.309C223.687 135.241 224.332 135.084 224.546 134.568C224.829 133.889 224.146 133.122 224.345 132.414C224.476 132.098 224.674 131.814 224.926 131.582C225.051 131.465 225.147 131.321 225.207 131.161C225.266 131.001 225.288 130.829 225.269 130.659C225.189 130.327 224.68 130.138 224.497 130.427" fill="#3F3D56"/>
<path d="M228.971 123.908C228.161 123.722 227.327 123.67 226.501 123.753C226.318 123.747 226.137 123.789 225.975 123.872C225.818 123.988 225.704 124.153 225.651 124.342C225.476 124.901 225.519 125.506 225.771 126.035C226.023 126.565 226.465 126.98 227.009 127.198C227.306 127.266 227.59 127.38 227.851 127.536C228.55 128.078 228.104 129.185 228.236 130.058C228.385 131.039 229.335 131.862 229.161 132.838C229.024 133.608 228.201 134.217 228.334 134.987C228.472 135.794 229.497 136.036 230.313 136.101C230.786 136.183 231.273 136.128 231.716 135.94C232.159 135.637 232.474 135.181 232.6 134.66C232.935 133.665 233.075 132.616 233.014 131.569C233.011 131.093 232.891 130.625 232.665 130.205C232.42 129.873 232.147 129.561 231.851 129.273C230.286 127.454 231.933 124.742 228.971 123.908Z" fill="#3F3D56"/>
<path opacity="0.8" d="M434.677 266.347C434.677 266.347 314.865 197.623 263.284 210.644C263.284 210.644 153.969 222.4 141.3 248.262C141.3 248.262 106.551 139.75 93.8818 136.133" stroke="#6C63FF" stroke-width="2" stroke-miterlimit="10"/>
<path opacity="0.8" d="M141.3 248.262C161.389 194.729 342.375 135.41 342.375 135.41C316.675 141.921 263.284 210.644 263.284 210.644C263.284 210.644 150.349 128.538 93.8818 136.133C93.8818 136.133 342.556 144.272 434.677 266.347" stroke="#6C63FF" stroke-width="2" stroke-miterlimit="10"/>
<path d="M93.8819 141.378C96.7806 141.378 99.1305 139.03 99.1305 136.133C99.1305 133.237 96.7806 130.889 93.8819 130.889C90.9832 130.889 88.6333 133.237 88.6333 136.133C88.6333 139.03 90.9832 141.378 93.8819 141.378Z" fill="#10403B"/>
<path d="M141.3 253.506C144.199 253.506 146.549 251.158 146.549 248.262C146.549 245.365 144.199 243.017 141.3 243.017C138.401 243.017 136.052 245.365 136.052 248.262C136.052 251.158 138.401 253.506 141.3 253.506Z" fill="#10403B"/>
<path d="M342.375 140.655C345.273 140.655 347.623 138.307 347.623 135.41C347.623 132.513 345.273 130.165 342.375 130.165C339.476 130.165 337.126 132.513 337.126 135.41C337.126 138.307 339.476 140.655 342.375 140.655Z" fill="#10403B"/>
<path d="M434.677 271.591C437.576 271.591 439.926 269.243 439.926 266.347C439.926 263.45 437.576 261.102 434.677 261.102C431.779 261.102 429.429 263.45 429.429 266.347C429.429 269.243 431.779 271.591 434.677 271.591Z" fill="#10403B"/>
<path d="M263.284 215.889C266.183 215.889 268.533 213.541 268.533 210.644C268.533 207.748 266.183 205.4 263.284 205.4C260.385 205.4 258.036 207.748 258.036 210.644C258.036 213.541 260.385 215.889 263.284 215.889Z" fill="#10403B"/>
</g>
<defs>
<clipPath id="clip0_303_1250">
<rect width="516" height="383" fill="white"/>
</clipPath>
</defs>
</svg>
