<svg width="600" height="330" viewBox="0 0 600 330" fill="none" xmlns="http://www.w3.org/2000/svg">
<path d="M91.5276 281.971C78.204 291.908 74.428 309.393 74.428 309.393C74.428 309.393 92.2537 310.765 105.577 300.828C118.901 290.891 122.677 273.407 122.677 273.407C122.677 273.407 104.851 272.034 91.5276 281.971Z" fill="#F1F1F1"/>
<path d="M97.0776 286.637C90.6742 301.98 74.6369 309.886 74.6369 309.886C74.6369 309.886 68.9817 292.917 75.3852 277.574C81.7886 262.231 97.8258 254.325 97.8258 254.325C97.8258 254.325 103.481 271.294 97.0776 286.637Z" fill="#F1F1F1"/>
<path d="M301.733 116.065C328.384 116.065 349.989 94.4486 349.989 67.7837C349.989 41.1188 328.384 19.5026 301.733 19.5026C275.081 19.5026 253.476 41.1188 253.476 67.7837C253.476 94.4486 275.081 116.065 301.733 116.065Z" fill="#FEB8B8"/>
<path d="M346.805 26.1308C339.59 14.4092 328.297 5.77201 315.099 1.88184L309.174 6.20723V0.590839C306.005 0.105465 302.797 -0.0815154 299.592 0.0323578L294.481 4.65933V0.416768C286.913 1.35764 279.623 3.85707 273.069 7.75746C266.515 11.6579 260.84 16.8746 256.401 23.0787C245.302 39.0883 243.428 61.3612 254.345 77.4993C257.342 68.2845 260.979 59.6383 263.977 50.4244C266.332 50.7457 268.719 50.7573 271.078 50.4589L274.724 41.9468L275.742 50.0987C287.044 49.1139 303.806 46.9507 314.52 44.9691L313.478 38.7151L319.711 43.9118C322.993 43.1559 324.942 42.4699 324.781 41.9459C332.749 54.7983 342.501 63.0069 350.468 75.8593C353.495 57.7367 356.978 42.6681 346.805 26.1308Z" fill="#2F2E41"/>
<path d="M405.519 191.94C403.859 181.952 402.148 171.772 397.508 162.774C394.458 156.88 389.618 151.264 383.092 150.098C381.807 149.984 380.544 149.691 379.339 149.229C377.427 148.307 351.733 133.633 347.65 131.077C344.143 128.882 338.608 124.82 335.817 124.82C333.009 124.758 322.243 127.265 280.221 123.978C280.221 123.978 268.677 128.531 259.745 134.051C259.609 133.962 216.13 157.322 214.496 157.261C211.403 157.13 208.527 159.112 206.754 161.607C204.981 164.103 204.149 167.192 203.279 170.179C212.775 191.339 221.464 212.525 230.962 233.685C231.406 234.482 231.643 235.379 231.649 236.291C231.458 237.239 231.054 238.13 230.467 238.897C225.81 246.383 225.958 255.798 226.466 264.596C226.976 273.394 227.605 282.687 223.676 290.572C222.607 292.737 221.217 294.719 220.2 296.884C217.819 301.787 216.959 317.47 218.349 322.738L392.566 327.732C388.821 317.43 405.519 191.94 405.519 191.94Z" fill="#6C63FF"/>
<path d="M188.219 234.623C187.872 237.139 187.837 239.688 188.115 242.213L190.612 278.091C190.847 281.473 191.077 284.846 191.394 288.219C191.994 294.765 192.889 301.26 193.999 307.744C194.024 308.665 194.414 309.538 195.081 310.172C195.749 310.806 196.641 311.149 197.562 311.126C208.553 313.453 219.91 313.36 231.127 312.726C248.245 311.77 292.039 309.961 294.714 306.484C297.39 303.007 295.831 297.382 292.342 294.57C288.853 291.758 231.061 284.903 231.061 284.903C231.626 280.426 233.329 276.209 234.945 271.958C237.848 264.419 240.559 256.632 240.611 248.555C240.663 240.479 237.622 231.987 231.009 227.36C225.57 223.562 218.566 222.857 211.938 223.013C207.115 223.152 198.782 221.996 194.377 223.883C190.891 225.419 188.871 231.208 188.219 234.623Z" fill="#FBBEBE"/>
<path d="M202.776 170.823C201.93 171.71 201.273 172.76 200.848 173.91C193.824 189.747 189.675 206.709 188.596 224.001C188.615 224.844 188.421 225.679 188.031 226.427C187.647 226.924 187.22 227.387 186.754 227.809C186.348 228.291 186.041 228.848 185.85 229.448C185.659 230.049 185.588 230.681 185.641 231.309C185.694 231.937 185.871 232.548 186.16 233.108C186.45 233.668 186.846 234.165 187.328 234.572C187.407 234.638 187.488 234.702 187.571 234.764C189.005 232.064 192.436 231.182 195.487 230.948C210.093 229.792 224.36 236.59 239.01 236.077C237.976 232.504 236.49 229.07 235.647 225.454C231.919 209.397 241.217 191.915 235.517 176.449C234.378 173.354 232.475 170.311 229.478 168.955C228.237 168.454 226.938 168.11 225.612 167.931C221.91 167.262 214.541 164.402 210.962 165.549C209.641 165.976 209.12 167.218 208.025 167.969C206.361 169.032 204.155 169.423 202.776 170.823Z" fill="#6C63FF"/>
<path d="M405.623 223.883C401.218 221.996 392.885 223.152 388.062 223.013C381.434 222.857 374.43 223.562 368.991 227.36C362.378 231.987 359.337 240.479 359.389 248.555C359.441 256.632 362.152 264.419 365.055 271.958C366.671 276.209 368.374 280.426 368.939 284.903C368.939 284.903 311.147 291.758 307.658 294.57C304.169 297.382 302.61 303.007 305.286 306.484C307.961 309.961 391.447 313.453 402.438 311.126C403.359 311.149 404.251 310.806 404.919 310.172C405.586 309.538 405.976 308.665 406.001 307.744C407.111 301.259 408.006 294.765 408.605 288.219C408.923 284.846 409.153 281.473 409.388 278.091L411.885 242.213C412.163 239.688 412.128 237.139 411.781 234.623C411.13 231.208 409.109 225.419 405.623 223.883Z" fill="#FBBEBE"/>
<path d="M391.975 167.969C390.88 167.218 390.359 165.976 389.038 165.549C385.459 164.402 378.09 167.262 374.389 167.931C373.062 168.11 371.763 168.454 370.522 168.955C367.525 170.311 365.622 173.354 364.483 176.449C358.783 191.915 368.081 209.397 364.353 225.454C363.51 229.07 362.024 232.504 360.99 236.077C375.64 236.59 389.907 229.792 404.513 230.948C407.564 231.182 410.995 232.064 412.429 234.764C412.512 234.702 412.593 234.638 412.672 234.572C413.154 234.165 413.551 233.668 413.84 233.108C414.129 232.548 414.306 231.937 414.359 231.309C414.412 230.681 414.341 230.049 414.15 229.448C413.959 228.848 413.652 228.291 413.246 227.809C412.78 227.387 412.353 226.924 411.969 226.427C411.579 225.679 411.385 224.844 411.404 224.001C410.325 206.709 406.176 189.747 399.153 173.91C398.727 172.76 398.07 171.71 397.224 170.823C395.845 169.423 393.639 169.032 391.975 167.969Z" fill="#6C63FF"/>
<path d="M287.441 312.839C294.634 312.839 300.465 307.005 300.465 299.808C300.465 292.611 294.634 286.777 287.441 286.777C280.247 286.777 274.416 292.611 274.416 299.808C274.416 307.005 280.247 312.839 287.441 312.839Z" fill="#FBBEBE"/>
<path d="M316.281 312.839C323.474 312.839 329.305 307.005 329.305 299.808C329.305 292.611 323.474 286.777 316.281 286.777C309.087 286.777 303.256 292.611 303.256 299.808C303.256 307.005 309.087 312.839 316.281 312.839Z" fill="#FBBEBE"/>
<path d="M396.677 329.172H217.741C215.652 329.17 213.649 328.338 212.172 326.86C210.695 325.383 209.864 323.379 209.861 321.289V212.678C209.864 210.588 210.695 208.584 212.172 207.106C213.649 205.628 215.652 204.797 217.741 204.794H396.677C398.766 204.797 400.769 205.628 402.246 207.106C403.723 208.584 404.555 210.588 404.557 212.678V321.289C404.555 323.379 403.723 325.383 402.246 326.86C400.769 328.338 398.766 329.17 396.677 329.172Z" fill="#3F3D56"/>
<path d="M306.775 272.199C309.654 272.199 311.989 269.864 311.989 266.983C311.989 264.102 309.654 261.767 306.775 261.767C303.896 261.767 301.562 264.102 301.562 266.983C301.562 269.864 303.896 272.199 306.775 272.199Z" fill="white"/>
<path d="M600 307.265H0V325.712H35.4893V330H564.524V325.712H600V307.265Z" fill="#F1F1F1"/>
<path d="M257.358 85.779C249.604 85.779 243.318 78.9792 243.318 70.5912V62.9972C243.318 54.6092 249.604 47.8094 257.358 47.8094V85.779H257.358Z" fill="#6C63FF"/>
<path d="M346.968 47.8094C354.722 47.8094 361.008 54.6092 361.008 62.9972V70.5912C361.008 78.9792 354.722 85.779 346.968 85.779V47.8094Z" fill="#6C63FF"/>
<path d="M354.325 64.1906H352.097C352.097 33.6297 329.114 8.76649 300.864 8.76649C272.613 8.76649 249.63 33.6297 249.63 64.1906H247.402C247.402 32.3009 271.385 6.35677 300.864 6.35677C330.342 6.35678 354.325 32.3009 354.325 64.1906Z" fill="#6C63FF"/>
</svg>
